<?xml version="1.0" encoding="utf-8" standalone="no"?>
<!DOCTYPE svg PUBLIC "-//W3C//DTD SVG 1.1//EN"
  "http://www.w3.org/Graphics/SVG/1.1/DTD/svg11.dtd">
<svg xmlns:xlink="http://www.w3.org/1999/xlink" width="998.646382pt" height="568.905pt" viewBox="0 0 998.646382 568.905" xmlns="http://www.w3.org/2000/svg" version="1.1">
 <metadata>
  <rdf:RDF xmlns:dc="http://purl.org/dc/elements/1.1/" xmlns:cc="http://creativecommons.org/ns#" xmlns:rdf="http://www.w3.org/1999/02/22-rdf-syntax-ns#">
   <cc:Work>
    <dc:type rdf:resource="http://purl.org/dc/dcmitype/StillImage"/>
    <dc:date>2025-06-02T18:58:36.351412</dc:date>
    <dc:format>image/svg+xml</dc:format>
    <dc:creator>
     <cc:Agent>
      <dc:title>Matplotlib v3.10.0, https://matplotlib.org/</dc:title>
     </cc:Agent>
    </dc:creator>
   </cc:Work>
  </rdf:RDF>
 </metadata>
 <defs>
  <style type="text/css">*{stroke-linejoin: round; stroke-linecap: butt}</style>
 </defs>
 <g id="figure_1">
  <g id="patch_1">
   <path d="M 0 568.905 
L 998.646382 568.905 
L 998.646382 0 
L 0 0 
z
" style="fill: #ffffff"/>
  </g>
  <g id="axes_1">
   <g id="patch_2">
    <path d="M 49.349375 527.4775 
L 943.653447 527.4775 
L 943.653447 25.3575 
L 49.349375 25.3575 
z
" style="fill: #ffffff"/>
   </g>
   <g id="matplotlib.axis_1">
    <g id="xtick_1">
     <g id="line2d_1">
      <path d="M 73.519755 527.4775 
L 73.519755 25.3575 
" clip-path="url(#p9c8d99127c)" style="fill: none; stroke-dasharray: 2.96,1.28; stroke-dashoffset: 0; stroke: #b0b0b0; stroke-opacity: 0.6; stroke-width: 0.8"/>
     </g>
     <g id="line2d_2">
      <defs>
       <path id="mcd3b045e27" d="M 0 0 
L 0 3.5 
" style="stroke: #000000; stroke-width: 0.8"/>
      </defs>
      <g>
       <use xlink:href="#mcd3b045e27" x="73.519755" y="527.4775" style="stroke: #000000; stroke-width: 0.8"/>
      </g>
     </g>
     <g id="text_1">
      <!-- 0.1 -->
      <g transform="translate(65.568193 542.075938) scale(0.1 -0.1)">
       <defs>
        <path id="DejaVuSans-30" d="M 2034 4250 
Q 1547 4250 1301 3770 
Q 1056 3291 1056 2328 
Q 1056 1369 1301 889 
Q 1547 409 2034 409 
Q 2525 409 2770 889 
Q 3016 1369 3016 2328 
Q 3016 3291 2770 3770 
Q 2525 4250 2034 4250 
z
M 2034 4750 
Q 2819 4750 3233 4129 
Q 3647 3509 3647 2328 
Q 3647 1150 3233 529 
Q 2819 -91 2034 -91 
Q 1250 -91 836 529 
Q 422 1150 422 2328 
Q 422 3509 836 4129 
Q 1250 4750 2034 4750 
z
" transform="scale(0.015625)"/>
        <path id="DejaVuSans-2e" d="M 684 794 
L 1344 794 
L 1344 0 
L 684 0 
L 684 794 
z
" transform="scale(0.015625)"/>
        <path id="DejaVuSans-31" d="M 794 531 
L 1825 531 
L 1825 4091 
L 703 3866 
L 703 4441 
L 1819 4666 
L 2450 4666 
L 2450 531 
L 3481 531 
L 3481 0 
L 794 0 
L 794 531 
z
" transform="scale(0.015625)"/>
       </defs>
       <use xlink:href="#DejaVuSans-30"/>
       <use xlink:href="#DejaVuSans-2e" transform="translate(63.623047 0)"/>
       <use xlink:href="#DejaVuSans-31" transform="translate(95.410156 0)"/>
      </g>
     </g>
    </g>
    <g id="xtick_2">
     <g id="line2d_3">
      <path d="M 194.371657 527.4775 
L 194.371657 25.3575 
" clip-path="url(#p9c8d99127c)" style="fill: none; stroke-dasharray: 2.96,1.28; stroke-dashoffset: 0; stroke: #b0b0b0; stroke-opacity: 0.6; stroke-width: 0.8"/>
     </g>
     <g id="line2d_4">
      <g>
       <use xlink:href="#mcd3b045e27" x="194.371657" y="527.4775" style="stroke: #000000; stroke-width: 0.8"/>
      </g>
     </g>
     <g id="text_2">
      <!-- 0.2 -->
      <g transform="translate(186.420094 542.075938) scale(0.1 -0.1)">
       <defs>
        <path id="DejaVuSans-32" d="M 1228 531 
L 3431 531 
L 3431 0 
L 469 0 
L 469 531 
Q 828 903 1448 1529 
Q 2069 2156 2228 2338 
Q 2531 2678 2651 2914 
Q 2772 3150 2772 3378 
Q 2772 3750 2511 3984 
Q 2250 4219 1831 4219 
Q 1534 4219 1204 4116 
Q 875 4013 500 3803 
L 500 4441 
Q 881 4594 1212 4672 
Q 1544 4750 1819 4750 
Q 2544 4750 2975 4387 
Q 3406 4025 3406 3419 
Q 3406 3131 3298 2873 
Q 3191 2616 2906 2266 
Q 2828 2175 2409 1742 
Q 1991 1309 1228 531 
z
" transform="scale(0.015625)"/>
       </defs>
       <use xlink:href="#DejaVuSans-30"/>
       <use xlink:href="#DejaVuSans-2e" transform="translate(63.623047 0)"/>
       <use xlink:href="#DejaVuSans-32" transform="translate(95.410156 0)"/>
      </g>
     </g>
    </g>
    <g id="xtick_3">
     <g id="line2d_5">
      <path d="M 315.223559 527.4775 
L 315.223559 25.3575 
" clip-path="url(#p9c8d99127c)" style="fill: none; stroke-dasharray: 2.96,1.28; stroke-dashoffset: 0; stroke: #b0b0b0; stroke-opacity: 0.6; stroke-width: 0.8"/>
     </g>
     <g id="line2d_6">
      <g>
       <use xlink:href="#mcd3b045e27" x="315.223559" y="527.4775" style="stroke: #000000; stroke-width: 0.8"/>
      </g>
     </g>
     <g id="text_3">
      <!-- 0.3 -->
      <g transform="translate(307.271996 542.075938) scale(0.1 -0.1)">
       <defs>
        <path id="DejaVuSans-33" d="M 2597 2516 
Q 3050 2419 3304 2112 
Q 3559 1806 3559 1356 
Q 3559 666 3084 287 
Q 2609 -91 1734 -91 
Q 1441 -91 1130 -33 
Q 819 25 488 141 
L 488 750 
Q 750 597 1062 519 
Q 1375 441 1716 441 
Q 2309 441 2620 675 
Q 2931 909 2931 1356 
Q 2931 1769 2642 2001 
Q 2353 2234 1838 2234 
L 1294 2234 
L 1294 2753 
L 1863 2753 
Q 2328 2753 2575 2939 
Q 2822 3125 2822 3475 
Q 2822 3834 2567 4026 
Q 2313 4219 1838 4219 
Q 1578 4219 1281 4162 
Q 984 4106 628 3988 
L 628 4550 
Q 988 4650 1302 4700 
Q 1616 4750 1894 4750 
Q 2613 4750 3031 4423 
Q 3450 4097 3450 3541 
Q 3450 3153 3228 2886 
Q 3006 2619 2597 2516 
z
" transform="scale(0.015625)"/>
       </defs>
       <use xlink:href="#DejaVuSans-30"/>
       <use xlink:href="#DejaVuSans-2e" transform="translate(63.623047 0)"/>
       <use xlink:href="#DejaVuSans-33" transform="translate(95.410156 0)"/>
      </g>
     </g>
    </g>
    <g id="xtick_4">
     <g id="line2d_7">
      <path d="M 436.07546 527.4775 
L 436.07546 25.3575 
" clip-path="url(#p9c8d99127c)" style="fill: none; stroke-dasharray: 2.96,1.28; stroke-dashoffset: 0; stroke: #b0b0b0; stroke-opacity: 0.6; stroke-width: 0.8"/>
     </g>
     <g id="line2d_8">
      <g>
       <use xlink:href="#mcd3b045e27" x="436.07546" y="527.4775" style="stroke: #000000; stroke-width: 0.8"/>
      </g>
     </g>
     <g id="text_4">
      <!-- 0.4 -->
      <g transform="translate(428.123898 542.075938) scale(0.1 -0.1)">
       <defs>
        <path id="DejaVuSans-34" d="M 2419 4116 
L 825 1625 
L 2419 1625 
L 2419 4116 
z
M 2253 4666 
L 3047 4666 
L 3047 1625 
L 3713 1625 
L 3713 1100 
L 3047 1100 
L 3047 0 
L 2419 0 
L 2419 1100 
L 313 1100 
L 313 1709 
L 2253 4666 
z
" transform="scale(0.015625)"/>
       </defs>
       <use xlink:href="#DejaVuSans-30"/>
       <use xlink:href="#DejaVuSans-2e" transform="translate(63.623047 0)"/>
       <use xlink:href="#DejaVuSans-34" transform="translate(95.410156 0)"/>
      </g>
     </g>
    </g>
    <g id="xtick_5">
     <g id="line2d_9">
      <path d="M 556.927362 527.4775 
L 556.927362 25.3575 
" clip-path="url(#p9c8d99127c)" style="fill: none; stroke-dasharray: 2.96,1.28; stroke-dashoffset: 0; stroke: #b0b0b0; stroke-opacity: 0.6; stroke-width: 0.8"/>
     </g>
     <g id="line2d_10">
      <g>
       <use xlink:href="#mcd3b045e27" x="556.927362" y="527.4775" style="stroke: #000000; stroke-width: 0.8"/>
      </g>
     </g>
     <g id="text_5">
      <!-- 0.5 -->
      <g transform="translate(548.975799 542.075938) scale(0.1 -0.1)">
       <defs>
        <path id="DejaVuSans-35" d="M 691 4666 
L 3169 4666 
L 3169 4134 
L 1269 4134 
L 1269 2991 
Q 1406 3038 1543 3061 
Q 1681 3084 1819 3084 
Q 2600 3084 3056 2656 
Q 3513 2228 3513 1497 
Q 3513 744 3044 326 
Q 2575 -91 1722 -91 
Q 1428 -91 1123 -41 
Q 819 9 494 109 
L 494 744 
Q 775 591 1075 516 
Q 1375 441 1709 441 
Q 2250 441 2565 725 
Q 2881 1009 2881 1497 
Q 2881 1984 2565 2268 
Q 2250 2553 1709 2553 
Q 1456 2553 1204 2497 
Q 953 2441 691 2322 
L 691 4666 
z
" transform="scale(0.015625)"/>
       </defs>
       <use xlink:href="#DejaVuSans-30"/>
       <use xlink:href="#DejaVuSans-2e" transform="translate(63.623047 0)"/>
       <use xlink:href="#DejaVuSans-35" transform="translate(95.410156 0)"/>
      </g>
     </g>
    </g>
    <g id="xtick_6">
     <g id="line2d_11">
      <path d="M 677.779263 527.4775 
L 677.779263 25.3575 
" clip-path="url(#p9c8d99127c)" style="fill: none; stroke-dasharray: 2.96,1.28; stroke-dashoffset: 0; stroke: #b0b0b0; stroke-opacity: 0.6; stroke-width: 0.8"/>
     </g>
     <g id="line2d_12">
      <g>
       <use xlink:href="#mcd3b045e27" x="677.779263" y="527.4775" style="stroke: #000000; stroke-width: 0.8"/>
      </g>
     </g>
     <g id="text_6">
      <!-- 0.6 -->
      <g transform="translate(669.827701 542.075938) scale(0.1 -0.1)">
       <defs>
        <path id="DejaVuSans-36" d="M 2113 2584 
Q 1688 2584 1439 2293 
Q 1191 2003 1191 1497 
Q 1191 994 1439 701 
Q 1688 409 2113 409 
Q 2538 409 2786 701 
Q 3034 994 3034 1497 
Q 3034 2003 2786 2293 
Q 2538 2584 2113 2584 
z
M 3366 4563 
L 3366 3988 
Q 3128 4100 2886 4159 
Q 2644 4219 2406 4219 
Q 1781 4219 1451 3797 
Q 1122 3375 1075 2522 
Q 1259 2794 1537 2939 
Q 1816 3084 2150 3084 
Q 2853 3084 3261 2657 
Q 3669 2231 3669 1497 
Q 3669 778 3244 343 
Q 2819 -91 2113 -91 
Q 1303 -91 875 529 
Q 447 1150 447 2328 
Q 447 3434 972 4092 
Q 1497 4750 2381 4750 
Q 2619 4750 2861 4703 
Q 3103 4656 3366 4563 
z
" transform="scale(0.015625)"/>
       </defs>
       <use xlink:href="#DejaVuSans-30"/>
       <use xlink:href="#DejaVuSans-2e" transform="translate(63.623047 0)"/>
       <use xlink:href="#DejaVuSans-36" transform="translate(95.410156 0)"/>
      </g>
     </g>
    </g>
    <g id="xtick_7">
     <g id="line2d_13">
      <path d="M 798.631165 527.4775 
L 798.631165 25.3575 
" clip-path="url(#p9c8d99127c)" style="fill: none; stroke-dasharray: 2.96,1.28; stroke-dashoffset: 0; stroke: #b0b0b0; stroke-opacity: 0.6; stroke-width: 0.8"/>
     </g>
     <g id="line2d_14">
      <g>
       <use xlink:href="#mcd3b045e27" x="798.631165" y="527.4775" style="stroke: #000000; stroke-width: 0.8"/>
      </g>
     </g>
     <g id="text_7">
      <!-- 0.7 -->
      <g transform="translate(790.679603 542.075938) scale(0.1 -0.1)">
       <defs>
        <path id="DejaVuSans-37" d="M 525 4666 
L 3525 4666 
L 3525 4397 
L 1831 0 
L 1172 0 
L 2766 4134 
L 525 4134 
L 525 4666 
z
" transform="scale(0.015625)"/>
       </defs>
       <use xlink:href="#DejaVuSans-30"/>
       <use xlink:href="#DejaVuSans-2e" transform="translate(63.623047 0)"/>
       <use xlink:href="#DejaVuSans-37" transform="translate(95.410156 0)"/>
      </g>
     </g>
    </g>
    <g id="xtick_8">
     <g id="line2d_15">
      <path d="M 919.483067 527.4775 
L 919.483067 25.3575 
" clip-path="url(#p9c8d99127c)" style="fill: none; stroke-dasharray: 2.96,1.28; stroke-dashoffset: 0; stroke: #b0b0b0; stroke-opacity: 0.6; stroke-width: 0.8"/>
     </g>
     <g id="line2d_16">
      <g>
       <use xlink:href="#mcd3b045e27" x="919.483067" y="527.4775" style="stroke: #000000; stroke-width: 0.8"/>
      </g>
     </g>
     <g id="text_8">
      <!-- 0.8 -->
      <g transform="translate(911.531504 542.075938) scale(0.1 -0.1)">
       <defs>
        <path id="DejaVuSans-38" d="M 2034 2216 
Q 1584 2216 1326 1975 
Q 1069 1734 1069 1313 
Q 1069 891 1326 650 
Q 1584 409 2034 409 
Q 2484 409 2743 651 
Q 3003 894 3003 1313 
Q 3003 1734 2745 1975 
Q 2488 2216 2034 2216 
z
M 1403 2484 
Q 997 2584 770 2862 
Q 544 3141 544 3541 
Q 544 4100 942 4425 
Q 1341 4750 2034 4750 
Q 2731 4750 3128 4425 
Q 3525 4100 3525 3541 
Q 3525 3141 3298 2862 
Q 3072 2584 2669 2484 
Q 3125 2378 3379 2068 
Q 3634 1759 3634 1313 
Q 3634 634 3220 271 
Q 2806 -91 2034 -91 
Q 1263 -91 848 271 
Q 434 634 434 1313 
Q 434 1759 690 2068 
Q 947 2378 1403 2484 
z
M 1172 3481 
Q 1172 3119 1398 2916 
Q 1625 2713 2034 2713 
Q 2441 2713 2670 2916 
Q 2900 3119 2900 3481 
Q 2900 3844 2670 4047 
Q 2441 4250 2034 4250 
Q 1625 4250 1398 4047 
Q 1172 3844 1172 3481 
z
" transform="scale(0.015625)"/>
       </defs>
       <use xlink:href="#DejaVuSans-30"/>
       <use xlink:href="#DejaVuSans-2e" transform="translate(63.623047 0)"/>
       <use xlink:href="#DejaVuSans-38" transform="translate(95.410156 0)"/>
      </g>
     </g>
    </g>
    <g id="text_9">
     <!-- Sparsity Ratio -->
     <g transform="translate(447.774848 558.793437) scale(0.14 -0.14)">
      <defs>
       <path id="DejaVuSans-53" d="M 3425 4513 
L 3425 3897 
Q 3066 4069 2747 4153 
Q 2428 4238 2131 4238 
Q 1616 4238 1336 4038 
Q 1056 3838 1056 3469 
Q 1056 3159 1242 3001 
Q 1428 2844 1947 2747 
L 2328 2669 
Q 3034 2534 3370 2195 
Q 3706 1856 3706 1288 
Q 3706 609 3251 259 
Q 2797 -91 1919 -91 
Q 1588 -91 1214 -16 
Q 841 59 441 206 
L 441 856 
Q 825 641 1194 531 
Q 1563 422 1919 422 
Q 2459 422 2753 634 
Q 3047 847 3047 1241 
Q 3047 1584 2836 1778 
Q 2625 1972 2144 2069 
L 1759 2144 
Q 1053 2284 737 2584 
Q 422 2884 422 3419 
Q 422 4038 858 4394 
Q 1294 4750 2059 4750 
Q 2388 4750 2728 4690 
Q 3069 4631 3425 4513 
z
" transform="scale(0.015625)"/>
       <path id="DejaVuSans-70" d="M 1159 525 
L 1159 -1331 
L 581 -1331 
L 581 3500 
L 1159 3500 
L 1159 2969 
Q 1341 3281 1617 3432 
Q 1894 3584 2278 3584 
Q 2916 3584 3314 3078 
Q 3713 2572 3713 1747 
Q 3713 922 3314 415 
Q 2916 -91 2278 -91 
Q 1894 -91 1617 61 
Q 1341 213 1159 525 
z
M 3116 1747 
Q 3116 2381 2855 2742 
Q 2594 3103 2138 3103 
Q 1681 3103 1420 2742 
Q 1159 2381 1159 1747 
Q 1159 1113 1420 752 
Q 1681 391 2138 391 
Q 2594 391 2855 752 
Q 3116 1113 3116 1747 
z
" transform="scale(0.015625)"/>
       <path id="DejaVuSans-61" d="M 2194 1759 
Q 1497 1759 1228 1600 
Q 959 1441 959 1056 
Q 959 750 1161 570 
Q 1363 391 1709 391 
Q 2188 391 2477 730 
Q 2766 1069 2766 1631 
L 2766 1759 
L 2194 1759 
z
M 3341 1997 
L 3341 0 
L 2766 0 
L 2766 531 
Q 2569 213 2275 61 
Q 1981 -91 1556 -91 
Q 1019 -91 701 211 
Q 384 513 384 1019 
Q 384 1609 779 1909 
Q 1175 2209 1959 2209 
L 2766 2209 
L 2766 2266 
Q 2766 2663 2505 2880 
Q 2244 3097 1772 3097 
Q 1472 3097 1187 3025 
Q 903 2953 641 2809 
L 641 3341 
Q 956 3463 1253 3523 
Q 1550 3584 1831 3584 
Q 2591 3584 2966 3190 
Q 3341 2797 3341 1997 
z
" transform="scale(0.015625)"/>
       <path id="DejaVuSans-72" d="M 2631 2963 
Q 2534 3019 2420 3045 
Q 2306 3072 2169 3072 
Q 1681 3072 1420 2755 
Q 1159 2438 1159 1844 
L 1159 0 
L 581 0 
L 581 3500 
L 1159 3500 
L 1159 2956 
Q 1341 3275 1631 3429 
Q 1922 3584 2338 3584 
Q 2397 3584 2469 3576 
Q 2541 3569 2628 3553 
L 2631 2963 
z
" transform="scale(0.015625)"/>
       <path id="DejaVuSans-73" d="M 2834 3397 
L 2834 2853 
Q 2591 2978 2328 3040 
Q 2066 3103 1784 3103 
Q 1356 3103 1142 2972 
Q 928 2841 928 2578 
Q 928 2378 1081 2264 
Q 1234 2150 1697 2047 
L 1894 2003 
Q 2506 1872 2764 1633 
Q 3022 1394 3022 966 
Q 3022 478 2636 193 
Q 2250 -91 1575 -91 
Q 1294 -91 989 -36 
Q 684 19 347 128 
L 347 722 
Q 666 556 975 473 
Q 1284 391 1588 391 
Q 1994 391 2212 530 
Q 2431 669 2431 922 
Q 2431 1156 2273 1281 
Q 2116 1406 1581 1522 
L 1381 1569 
Q 847 1681 609 1914 
Q 372 2147 372 2553 
Q 372 3047 722 3315 
Q 1072 3584 1716 3584 
Q 2034 3584 2315 3537 
Q 2597 3491 2834 3397 
z
" transform="scale(0.015625)"/>
       <path id="DejaVuSans-69" d="M 603 3500 
L 1178 3500 
L 1178 0 
L 603 0 
L 603 3500 
z
M 603 4863 
L 1178 4863 
L 1178 4134 
L 603 4134 
L 603 4863 
z
" transform="scale(0.015625)"/>
       <path id="DejaVuSans-74" d="M 1172 4494 
L 1172 3500 
L 2356 3500 
L 2356 3053 
L 1172 3053 
L 1172 1153 
Q 1172 725 1289 603 
Q 1406 481 1766 481 
L 2356 481 
L 2356 0 
L 1766 0 
Q 1100 0 847 248 
Q 594 497 594 1153 
L 594 3053 
L 172 3053 
L 172 3500 
L 594 3500 
L 594 4494 
L 1172 4494 
z
" transform="scale(0.015625)"/>
       <path id="DejaVuSans-79" d="M 2059 -325 
Q 1816 -950 1584 -1140 
Q 1353 -1331 966 -1331 
L 506 -1331 
L 506 -850 
L 844 -850 
Q 1081 -850 1212 -737 
Q 1344 -625 1503 -206 
L 1606 56 
L 191 3500 
L 800 3500 
L 1894 763 
L 2988 3500 
L 3597 3500 
L 2059 -325 
z
" transform="scale(0.015625)"/>
       <path id="DejaVuSans-20" transform="scale(0.015625)"/>
       <path id="DejaVuSans-52" d="M 2841 2188 
Q 3044 2119 3236 1894 
Q 3428 1669 3622 1275 
L 4263 0 
L 3584 0 
L 2988 1197 
Q 2756 1666 2539 1819 
Q 2322 1972 1947 1972 
L 1259 1972 
L 1259 0 
L 628 0 
L 628 4666 
L 2053 4666 
Q 2853 4666 3247 4331 
Q 3641 3997 3641 3322 
Q 3641 2881 3436 2590 
Q 3231 2300 2841 2188 
z
M 1259 4147 
L 1259 2491 
L 2053 2491 
Q 2509 2491 2742 2702 
Q 2975 2913 2975 3322 
Q 2975 3731 2742 3939 
Q 2509 4147 2053 4147 
L 1259 4147 
z
" transform="scale(0.015625)"/>
       <path id="DejaVuSans-6f" d="M 1959 3097 
Q 1497 3097 1228 2736 
Q 959 2375 959 1747 
Q 959 1119 1226 758 
Q 1494 397 1959 397 
Q 2419 397 2687 759 
Q 2956 1122 2956 1747 
Q 2956 2369 2687 2733 
Q 2419 3097 1959 3097 
z
M 1959 3584 
Q 2709 3584 3137 3096 
Q 3566 2609 3566 1747 
Q 3566 888 3137 398 
Q 2709 -91 1959 -91 
Q 1206 -91 779 398 
Q 353 888 353 1747 
Q 353 2609 779 3096 
Q 1206 3584 1959 3584 
z
" transform="scale(0.015625)"/>
      </defs>
      <use xlink:href="#DejaVuSans-53"/>
      <use xlink:href="#DejaVuSans-70" transform="translate(63.476562 0)"/>
      <use xlink:href="#DejaVuSans-61" transform="translate(126.953125 0)"/>
      <use xlink:href="#DejaVuSans-72" transform="translate(188.232422 0)"/>
      <use xlink:href="#DejaVuSans-73" transform="translate(229.345703 0)"/>
      <use xlink:href="#DejaVuSans-69" transform="translate(281.445312 0)"/>
      <use xlink:href="#DejaVuSans-74" transform="translate(309.228516 0)"/>
      <use xlink:href="#DejaVuSans-79" transform="translate(348.4375 0)"/>
      <use xlink:href="#DejaVuSans-20" transform="translate(407.617188 0)"/>
      <use xlink:href="#DejaVuSans-52" transform="translate(439.404297 0)"/>
      <use xlink:href="#DejaVuSans-61" transform="translate(506.636719 0)"/>
      <use xlink:href="#DejaVuSans-74" transform="translate(567.916016 0)"/>
      <use xlink:href="#DejaVuSans-69" transform="translate(607.125 0)"/>
      <use xlink:href="#DejaVuSans-6f" transform="translate(634.908203 0)"/>
     </g>
    </g>
   </g>
   <g id="matplotlib.axis_2">
    <g id="ytick_1">
     <g id="line2d_17">
      <path d="M 49.349375 445.98768 
L 943.653447 445.98768 
" clip-path="url(#p9c8d99127c)" style="fill: none; stroke-dasharray: 2.96,1.28; stroke-dashoffset: 0; stroke: #b0b0b0; stroke-opacity: 0.6; stroke-width: 0.8"/>
     </g>
     <g id="line2d_18">
      <defs>
       <path id="m00cc74113c" d="M 0 0 
L -3.5 0 
" style="stroke: #000000; stroke-width: 0.8"/>
      </defs>
      <g>
       <use xlink:href="#m00cc74113c" x="49.349375" y="445.98768" style="stroke: #000000; stroke-width: 0.8"/>
      </g>
     </g>
     <g id="text_10">
      <!-- $\mathdefault{10^{1}}$ -->
      <g transform="translate(24.749375 449.786898) scale(0.1 -0.1)">
       <use xlink:href="#DejaVuSans-31" transform="translate(0 0.684375)"/>
       <use xlink:href="#DejaVuSans-30" transform="translate(63.623047 0.684375)"/>
       <use xlink:href="#DejaVuSans-31" transform="translate(128.203125 38.965625) scale(0.7)"/>
      </g>
     </g>
    </g>
    <g id="ytick_2">
     <g id="line2d_19">
      <path d="M 49.349375 290.139271 
L 943.653447 290.139271 
" clip-path="url(#p9c8d99127c)" style="fill: none; stroke-dasharray: 2.96,1.28; stroke-dashoffset: 0; stroke: #b0b0b0; stroke-opacity: 0.6; stroke-width: 0.8"/>
     </g>
     <g id="line2d_20">
      <g>
       <use xlink:href="#m00cc74113c" x="49.349375" y="290.139271" style="stroke: #000000; stroke-width: 0.8"/>
      </g>
     </g>
     <g id="text_11">
      <!-- $\mathdefault{10^{2}}$ -->
      <g transform="translate(24.749375 293.93849) scale(0.1 -0.1)">
       <use xlink:href="#DejaVuSans-31" transform="translate(0 0.765625)"/>
       <use xlink:href="#DejaVuSans-30" transform="translate(63.623047 0.765625)"/>
       <use xlink:href="#DejaVuSans-32" transform="translate(128.203125 39.046875) scale(0.7)"/>
      </g>
     </g>
    </g>
    <g id="ytick_3">
     <g id="line2d_21">
      <path d="M 49.349375 134.290863 
L 943.653447 134.290863 
" clip-path="url(#p9c8d99127c)" style="fill: none; stroke-dasharray: 2.96,1.28; stroke-dashoffset: 0; stroke: #b0b0b0; stroke-opacity: 0.6; stroke-width: 0.8"/>
     </g>
     <g id="line2d_22">
      <g>
       <use xlink:href="#m00cc74113c" x="49.349375" y="134.290863" style="stroke: #000000; stroke-width: 0.8"/>
      </g>
     </g>
     <g id="text_12">
      <!-- $\mathdefault{10^{3}}$ -->
      <g transform="translate(24.749375 138.090082) scale(0.1 -0.1)">
       <use xlink:href="#DejaVuSans-31" transform="translate(0 0.765625)"/>
       <use xlink:href="#DejaVuSans-30" transform="translate(63.623047 0.765625)"/>
       <use xlink:href="#DejaVuSans-33" transform="translate(128.203125 39.046875) scale(0.7)"/>
      </g>
     </g>
    </g>
    <g id="ytick_4">
     <g id="line2d_23">
      <path d="M 49.349375 527.4775 
L 943.653447 527.4775 
" clip-path="url(#p9c8d99127c)" style="fill: none; stroke-dasharray: 2.96,1.28; stroke-dashoffset: 0; stroke: #b0b0b0; stroke-opacity: 0.6; stroke-width: 0.8"/>
     </g>
     <g id="line2d_24">
      <defs>
       <path id="mfcff8a6806" d="M 0 0 
L -2 0 
" style="stroke: #000000; stroke-width: 0.6"/>
      </defs>
      <g>
       <use xlink:href="#mfcff8a6806" x="49.349375" y="527.4775" style="stroke: #000000; stroke-width: 0.6"/>
      </g>
     </g>
    </g>
    <g id="ytick_5">
     <g id="line2d_25">
      <path d="M 49.349375 508.005997 
L 943.653447 508.005997 
" clip-path="url(#p9c8d99127c)" style="fill: none; stroke-dasharray: 2.96,1.28; stroke-dashoffset: 0; stroke: #b0b0b0; stroke-opacity: 0.6; stroke-width: 0.8"/>
     </g>
     <g id="line2d_26">
      <g>
       <use xlink:href="#mfcff8a6806" x="49.349375" y="508.005997" style="stroke: #000000; stroke-width: 0.6"/>
      </g>
     </g>
    </g>
    <g id="ytick_6">
     <g id="line2d_27">
      <path d="M 49.349375 492.902725 
L 943.653447 492.902725 
" clip-path="url(#p9c8d99127c)" style="fill: none; stroke-dasharray: 2.96,1.28; stroke-dashoffset: 0; stroke: #b0b0b0; stroke-opacity: 0.6; stroke-width: 0.8"/>
     </g>
     <g id="line2d_28">
      <g>
       <use xlink:href="#mfcff8a6806" x="49.349375" y="492.902725" style="stroke: #000000; stroke-width: 0.6"/>
      </g>
     </g>
    </g>
    <g id="ytick_7">
     <g id="line2d_29">
      <path d="M 49.349375 480.562454 
L 943.653447 480.562454 
" clip-path="url(#p9c8d99127c)" style="fill: none; stroke-dasharray: 2.96,1.28; stroke-dashoffset: 0; stroke: #b0b0b0; stroke-opacity: 0.6; stroke-width: 0.8"/>
     </g>
     <g id="line2d_30">
      <g>
       <use xlink:href="#mfcff8a6806" x="49.349375" y="480.562454" style="stroke: #000000; stroke-width: 0.6"/>
      </g>
     </g>
    </g>
    <g id="ytick_8">
     <g id="line2d_31">
      <path d="M 49.349375 470.128904 
L 943.653447 470.128904 
" clip-path="url(#p9c8d99127c)" style="fill: none; stroke-dasharray: 2.96,1.28; stroke-dashoffset: 0; stroke: #b0b0b0; stroke-opacity: 0.6; stroke-width: 0.8"/>
     </g>
     <g id="line2d_32">
      <g>
       <use xlink:href="#mfcff8a6806" x="49.349375" y="470.128904" style="stroke: #000000; stroke-width: 0.6"/>
      </g>
     </g>
    </g>
    <g id="ytick_9">
     <g id="line2d_33">
      <path d="M 49.349375 461.090951 
L 943.653447 461.090951 
" clip-path="url(#p9c8d99127c)" style="fill: none; stroke-dasharray: 2.96,1.28; stroke-dashoffset: 0; stroke: #b0b0b0; stroke-opacity: 0.6; stroke-width: 0.8"/>
     </g>
     <g id="line2d_34">
      <g>
       <use xlink:href="#mfcff8a6806" x="49.349375" y="461.090951" style="stroke: #000000; stroke-width: 0.6"/>
      </g>
     </g>
    </g>
    <g id="ytick_10">
     <g id="line2d_35">
      <path d="M 49.349375 453.118912 
L 943.653447 453.118912 
" clip-path="url(#p9c8d99127c)" style="fill: none; stroke-dasharray: 2.96,1.28; stroke-dashoffset: 0; stroke: #b0b0b0; stroke-opacity: 0.6; stroke-width: 0.8"/>
     </g>
     <g id="line2d_36">
      <g>
       <use xlink:href="#mfcff8a6806" x="49.349375" y="453.118912" style="stroke: #000000; stroke-width: 0.6"/>
      </g>
     </g>
    </g>
    <g id="ytick_11">
     <g id="line2d_37">
      <path d="M 49.349375 399.072634 
L 943.653447 399.072634 
" clip-path="url(#p9c8d99127c)" style="fill: none; stroke-dasharray: 2.96,1.28; stroke-dashoffset: 0; stroke: #b0b0b0; stroke-opacity: 0.6; stroke-width: 0.8"/>
     </g>
     <g id="line2d_38">
      <g>
       <use xlink:href="#mfcff8a6806" x="49.349375" y="399.072634" style="stroke: #000000; stroke-width: 0.6"/>
      </g>
     </g>
    </g>
    <g id="ytick_12">
     <g id="line2d_39">
      <path d="M 49.349375 371.629092 
L 943.653447 371.629092 
" clip-path="url(#p9c8d99127c)" style="fill: none; stroke-dasharray: 2.96,1.28; stroke-dashoffset: 0; stroke: #b0b0b0; stroke-opacity: 0.6; stroke-width: 0.8"/>
     </g>
     <g id="line2d_40">
      <g>
       <use xlink:href="#mfcff8a6806" x="49.349375" y="371.629092" style="stroke: #000000; stroke-width: 0.6"/>
      </g>
     </g>
    </g>
    <g id="ytick_13">
     <g id="line2d_41">
      <path d="M 49.349375 352.157588 
L 943.653447 352.157588 
" clip-path="url(#p9c8d99127c)" style="fill: none; stroke-dasharray: 2.96,1.28; stroke-dashoffset: 0; stroke: #b0b0b0; stroke-opacity: 0.6; stroke-width: 0.8"/>
     </g>
     <g id="line2d_42">
      <g>
       <use xlink:href="#mfcff8a6806" x="49.349375" y="352.157588" style="stroke: #000000; stroke-width: 0.6"/>
      </g>
     </g>
    </g>
    <g id="ytick_14">
     <g id="line2d_43">
      <path d="M 49.349375 337.054317 
L 943.653447 337.054317 
" clip-path="url(#p9c8d99127c)" style="fill: none; stroke-dasharray: 2.96,1.28; stroke-dashoffset: 0; stroke: #b0b0b0; stroke-opacity: 0.6; stroke-width: 0.8"/>
     </g>
     <g id="line2d_44">
      <g>
       <use xlink:href="#mfcff8a6806" x="49.349375" y="337.054317" style="stroke: #000000; stroke-width: 0.6"/>
      </g>
     </g>
    </g>
    <g id="ytick_15">
     <g id="line2d_45">
      <path d="M 49.349375 324.714046 
L 943.653447 324.714046 
" clip-path="url(#p9c8d99127c)" style="fill: none; stroke-dasharray: 2.96,1.28; stroke-dashoffset: 0; stroke: #b0b0b0; stroke-opacity: 0.6; stroke-width: 0.8"/>
     </g>
     <g id="line2d_46">
      <g>
       <use xlink:href="#mfcff8a6806" x="49.349375" y="324.714046" style="stroke: #000000; stroke-width: 0.6"/>
      </g>
     </g>
    </g>
    <g id="ytick_16">
     <g id="line2d_47">
      <path d="M 49.349375 314.280495 
L 943.653447 314.280495 
" clip-path="url(#p9c8d99127c)" style="fill: none; stroke-dasharray: 2.96,1.28; stroke-dashoffset: 0; stroke: #b0b0b0; stroke-opacity: 0.6; stroke-width: 0.8"/>
     </g>
     <g id="line2d_48">
      <g>
       <use xlink:href="#mfcff8a6806" x="49.349375" y="314.280495" style="stroke: #000000; stroke-width: 0.6"/>
      </g>
     </g>
    </g>
    <g id="ytick_17">
     <g id="line2d_49">
      <path d="M 49.349375 305.242543 
L 943.653447 305.242543 
" clip-path="url(#p9c8d99127c)" style="fill: none; stroke-dasharray: 2.96,1.28; stroke-dashoffset: 0; stroke: #b0b0b0; stroke-opacity: 0.6; stroke-width: 0.8"/>
     </g>
     <g id="line2d_50">
      <g>
       <use xlink:href="#mfcff8a6806" x="49.349375" y="305.242543" style="stroke: #000000; stroke-width: 0.6"/>
      </g>
     </g>
    </g>
    <g id="ytick_18">
     <g id="line2d_51">
      <path d="M 49.349375 297.270503 
L 943.653447 297.270503 
" clip-path="url(#p9c8d99127c)" style="fill: none; stroke-dasharray: 2.96,1.28; stroke-dashoffset: 0; stroke: #b0b0b0; stroke-opacity: 0.6; stroke-width: 0.8"/>
     </g>
     <g id="line2d_52">
      <g>
       <use xlink:href="#mfcff8a6806" x="49.349375" y="297.270503" style="stroke: #000000; stroke-width: 0.6"/>
      </g>
     </g>
    </g>
    <g id="ytick_19">
     <g id="line2d_53">
      <path d="M 49.349375 243.224226 
L 943.653447 243.224226 
" clip-path="url(#p9c8d99127c)" style="fill: none; stroke-dasharray: 2.96,1.28; stroke-dashoffset: 0; stroke: #b0b0b0; stroke-opacity: 0.6; stroke-width: 0.8"/>
     </g>
     <g id="line2d_54">
      <g>
       <use xlink:href="#mfcff8a6806" x="49.349375" y="243.224226" style="stroke: #000000; stroke-width: 0.6"/>
      </g>
     </g>
    </g>
    <g id="ytick_20">
     <g id="line2d_55">
      <path d="M 49.349375 215.780683 
L 943.653447 215.780683 
" clip-path="url(#p9c8d99127c)" style="fill: none; stroke-dasharray: 2.96,1.28; stroke-dashoffset: 0; stroke: #b0b0b0; stroke-opacity: 0.6; stroke-width: 0.8"/>
     </g>
     <g id="line2d_56">
      <g>
       <use xlink:href="#mfcff8a6806" x="49.349375" y="215.780683" style="stroke: #000000; stroke-width: 0.6"/>
      </g>
     </g>
    </g>
    <g id="ytick_21">
     <g id="line2d_57">
      <path d="M 49.349375 196.30918 
L 943.653447 196.30918 
" clip-path="url(#p9c8d99127c)" style="fill: none; stroke-dasharray: 2.96,1.28; stroke-dashoffset: 0; stroke: #b0b0b0; stroke-opacity: 0.6; stroke-width: 0.8"/>
     </g>
     <g id="line2d_58">
      <g>
       <use xlink:href="#mfcff8a6806" x="49.349375" y="196.30918" style="stroke: #000000; stroke-width: 0.6"/>
      </g>
     </g>
    </g>
    <g id="ytick_22">
     <g id="line2d_59">
      <path d="M 49.349375 181.205908 
L 943.653447 181.205908 
" clip-path="url(#p9c8d99127c)" style="fill: none; stroke-dasharray: 2.96,1.28; stroke-dashoffset: 0; stroke: #b0b0b0; stroke-opacity: 0.6; stroke-width: 0.8"/>
     </g>
     <g id="line2d_60">
      <g>
       <use xlink:href="#mfcff8a6806" x="49.349375" y="181.205908" style="stroke: #000000; stroke-width: 0.6"/>
      </g>
     </g>
    </g>
    <g id="ytick_23">
     <g id="line2d_61">
      <path d="M 49.349375 168.865637 
L 943.653447 168.865637 
" clip-path="url(#p9c8d99127c)" style="fill: none; stroke-dasharray: 2.96,1.28; stroke-dashoffset: 0; stroke: #b0b0b0; stroke-opacity: 0.6; stroke-width: 0.8"/>
     </g>
     <g id="line2d_62">
      <g>
       <use xlink:href="#mfcff8a6806" x="49.349375" y="168.865637" style="stroke: #000000; stroke-width: 0.6"/>
      </g>
     </g>
    </g>
    <g id="ytick_24">
     <g id="line2d_63">
      <path d="M 49.349375 158.432087 
L 943.653447 158.432087 
" clip-path="url(#p9c8d99127c)" style="fill: none; stroke-dasharray: 2.96,1.28; stroke-dashoffset: 0; stroke: #b0b0b0; stroke-opacity: 0.6; stroke-width: 0.8"/>
     </g>
     <g id="line2d_64">
      <g>
       <use xlink:href="#mfcff8a6806" x="49.349375" y="158.432087" style="stroke: #000000; stroke-width: 0.6"/>
      </g>
     </g>
    </g>
    <g id="ytick_25">
     <g id="line2d_65">
      <path d="M 49.349375 149.394134 
L 943.653447 149.394134 
" clip-path="url(#p9c8d99127c)" style="fill: none; stroke-dasharray: 2.96,1.28; stroke-dashoffset: 0; stroke: #b0b0b0; stroke-opacity: 0.6; stroke-width: 0.8"/>
     </g>
     <g id="line2d_66">
      <g>
       <use xlink:href="#mfcff8a6806" x="49.349375" y="149.394134" style="stroke: #000000; stroke-width: 0.6"/>
      </g>
     </g>
    </g>
    <g id="ytick_26">
     <g id="line2d_67">
      <path d="M 49.349375 141.422095 
L 943.653447 141.422095 
" clip-path="url(#p9c8d99127c)" style="fill: none; stroke-dasharray: 2.96,1.28; stroke-dashoffset: 0; stroke: #b0b0b0; stroke-opacity: 0.6; stroke-width: 0.8"/>
     </g>
     <g id="line2d_68">
      <g>
       <use xlink:href="#mfcff8a6806" x="49.349375" y="141.422095" style="stroke: #000000; stroke-width: 0.6"/>
      </g>
     </g>
    </g>
    <g id="ytick_27">
     <g id="line2d_69">
      <path d="M 49.349375 87.375817 
L 943.653447 87.375817 
" clip-path="url(#p9c8d99127c)" style="fill: none; stroke-dasharray: 2.96,1.28; stroke-dashoffset: 0; stroke: #b0b0b0; stroke-opacity: 0.6; stroke-width: 0.8"/>
     </g>
     <g id="line2d_70">
      <g>
       <use xlink:href="#mfcff8a6806" x="49.349375" y="87.375817" style="stroke: #000000; stroke-width: 0.6"/>
      </g>
     </g>
    </g>
    <g id="ytick_28">
     <g id="line2d_71">
      <path d="M 49.349375 59.932275 
L 943.653447 59.932275 
" clip-path="url(#p9c8d99127c)" style="fill: none; stroke-dasharray: 2.96,1.28; stroke-dashoffset: 0; stroke: #b0b0b0; stroke-opacity: 0.6; stroke-width: 0.8"/>
     </g>
     <g id="line2d_72">
      <g>
       <use xlink:href="#mfcff8a6806" x="49.349375" y="59.932275" style="stroke: #000000; stroke-width: 0.6"/>
      </g>
     </g>
    </g>
    <g id="ytick_29">
     <g id="line2d_73">
      <path d="M 49.349375 40.460771 
L 943.653447 40.460771 
" clip-path="url(#p9c8d99127c)" style="fill: none; stroke-dasharray: 2.96,1.28; stroke-dashoffset: 0; stroke: #b0b0b0; stroke-opacity: 0.6; stroke-width: 0.8"/>
     </g>
     <g id="line2d_74">
      <g>
       <use xlink:href="#mfcff8a6806" x="49.349375" y="40.460771" style="stroke: #000000; stroke-width: 0.6"/>
      </g>
     </g>
    </g>
    <g id="ytick_30">
     <g id="line2d_75">
      <path d="M 49.349375 25.3575 
L 943.653447 25.3575 
" clip-path="url(#p9c8d99127c)" style="fill: none; stroke-dasharray: 2.96,1.28; stroke-dashoffset: 0; stroke: #b0b0b0; stroke-opacity: 0.6; stroke-width: 0.8"/>
     </g>
     <g id="line2d_76">
      <g>
       <use xlink:href="#mfcff8a6806" x="49.349375" y="25.3575" style="stroke: #000000; stroke-width: 0.6"/>
      </g>
     </g>
    </g>
    <g id="text_13">
     <!-- Perplexity (PPL) -->
     <g transform="translate(17.837813 331.146562) rotate(-90) scale(0.14 -0.14)">
      <defs>
       <path id="DejaVuSans-50" d="M 1259 4147 
L 1259 2394 
L 2053 2394 
Q 2494 2394 2734 2622 
Q 2975 2850 2975 3272 
Q 2975 3691 2734 3919 
Q 2494 4147 2053 4147 
L 1259 4147 
z
M 628 4666 
L 2053 4666 
Q 2838 4666 3239 4311 
Q 3641 3956 3641 3272 
Q 3641 2581 3239 2228 
Q 2838 1875 2053 1875 
L 1259 1875 
L 1259 0 
L 628 0 
L 628 4666 
z
" transform="scale(0.015625)"/>
       <path id="DejaVuSans-65" d="M 3597 1894 
L 3597 1613 
L 953 1613 
Q 991 1019 1311 708 
Q 1631 397 2203 397 
Q 2534 397 2845 478 
Q 3156 559 3463 722 
L 3463 178 
Q 3153 47 2828 -22 
Q 2503 -91 2169 -91 
Q 1331 -91 842 396 
Q 353 884 353 1716 
Q 353 2575 817 3079 
Q 1281 3584 2069 3584 
Q 2775 3584 3186 3129 
Q 3597 2675 3597 1894 
z
M 3022 2063 
Q 3016 2534 2758 2815 
Q 2500 3097 2075 3097 
Q 1594 3097 1305 2825 
Q 1016 2553 972 2059 
L 3022 2063 
z
" transform="scale(0.015625)"/>
       <path id="DejaVuSans-6c" d="M 603 4863 
L 1178 4863 
L 1178 0 
L 603 0 
L 603 4863 
z
" transform="scale(0.015625)"/>
       <path id="DejaVuSans-78" d="M 3513 3500 
L 2247 1797 
L 3578 0 
L 2900 0 
L 1881 1375 
L 863 0 
L 184 0 
L 1544 1831 
L 300 3500 
L 978 3500 
L 1906 2253 
L 2834 3500 
L 3513 3500 
z
" transform="scale(0.015625)"/>
       <path id="DejaVuSans-28" d="M 1984 4856 
Q 1566 4138 1362 3434 
Q 1159 2731 1159 2009 
Q 1159 1288 1364 580 
Q 1569 -128 1984 -844 
L 1484 -844 
Q 1016 -109 783 600 
Q 550 1309 550 2009 
Q 550 2706 781 3412 
Q 1013 4119 1484 4856 
L 1984 4856 
z
" transform="scale(0.015625)"/>
       <path id="DejaVuSans-4c" d="M 628 4666 
L 1259 4666 
L 1259 531 
L 3531 531 
L 3531 0 
L 628 0 
L 628 4666 
z
" transform="scale(0.015625)"/>
       <path id="DejaVuSans-29" d="M 513 4856 
L 1013 4856 
Q 1481 4119 1714 3412 
Q 1947 2706 1947 2009 
Q 1947 1309 1714 600 
Q 1481 -109 1013 -844 
L 513 -844 
Q 928 -128 1133 580 
Q 1338 1288 1338 2009 
Q 1338 2731 1133 3434 
Q 928 4138 513 4856 
z
" transform="scale(0.015625)"/>
      </defs>
      <use xlink:href="#DejaVuSans-50"/>
      <use xlink:href="#DejaVuSans-65" transform="translate(56.677734 0)"/>
      <use xlink:href="#DejaVuSans-72" transform="translate(118.201172 0)"/>
      <use xlink:href="#DejaVuSans-70" transform="translate(159.314453 0)"/>
      <use xlink:href="#DejaVuSans-6c" transform="translate(222.791016 0)"/>
      <use xlink:href="#DejaVuSans-65" transform="translate(250.574219 0)"/>
      <use xlink:href="#DejaVuSans-78" transform="translate(310.347656 0)"/>
      <use xlink:href="#DejaVuSans-69" transform="translate(369.527344 0)"/>
      <use xlink:href="#DejaVuSans-74" transform="translate(397.310547 0)"/>
      <use xlink:href="#DejaVuSans-79" transform="translate(436.519531 0)"/>
      <use xlink:href="#DejaVuSans-20" transform="translate(495.699219 0)"/>
      <use xlink:href="#DejaVuSans-28" transform="translate(527.486328 0)"/>
      <use xlink:href="#DejaVuSans-50" transform="translate(566.5 0)"/>
      <use xlink:href="#DejaVuSans-50" transform="translate(626.802734 0)"/>
      <use xlink:href="#DejaVuSans-4c" transform="translate(687.105469 0)"/>
      <use xlink:href="#DejaVuSans-29" transform="translate(742.818359 0)"/>
     </g>
    </g>
   </g>
   <g id="line2d_77">
    <path d="M 73.519755 424.650816 
L 80.844113 422.412365 
L 88.168471 420.29834 
L 95.492828 418.295631 
L 102.817186 416.393101 
L 110.141544 414.581202 
L 117.465901 412.851692 
L 124.790259 411.197402 
L 132.114617 409.612061 
L 139.438974 408.090151 
L 146.763332 406.626791 
L 154.08769 405.217642 
L 161.412047 403.85883 
L 168.736405 402.546884 
L 176.060763 401.278677 
L 183.38512 400.051388 
L 190.709478 398.862457 
L 198.033836 397.709561 
L 205.358193 396.590578 
L 212.682551 395.50357 
L 220.006909 394.446761 
L 227.331266 393.418518 
L 234.655624 392.417338 
L 241.979982 391.441831 
L 249.304339 390.490714 
L 256.628697 389.562798 
L 263.953055 388.656978 
L 271.277413 387.772224 
L 278.60177 386.907581 
L 285.926128 384.418761 
L 293.250486 380.138787 
L 300.574843 375.858814 
L 307.899201 371.57884 
L 315.223559 367.298867 
L 322.547916 363.018894 
L 329.872274 358.73892 
L 337.196632 354.458947 
L 344.520989 350.178974 
L 351.845347 345.899 
L 359.169705 341.619027 
L 366.494062 337.339053 
L 373.81842 333.05908 
L 381.142778 328.779107 
L 388.467135 324.499133 
L 395.791493 320.21916 
L 403.115851 315.939187 
L 410.440208 311.659213 
L 417.764566 307.37924 
L 425.088924 303.099266 
L 432.413281 298.819293 
L 439.737639 294.53932 
L 447.061997 290.259346 
L 454.386354 285.979373 
L 461.710712 281.6994 
L 469.03507 277.419426 
L 476.359427 273.139453 
L 483.683785 268.859479 
L 491.008143 264.579506 
L 498.3325 260.299533 
L 505.656858 256.019559 
L 512.981216 251.739586 
L 520.305573 247.459613 
L 527.629931 243.179639 
L 534.954289 238.899666 
L 542.278646 234.619692 
L 549.603004 230.339719 
L 556.927362 226.059746 
L 564.251719 221.779772 
L 571.576077 217.499799 
L 578.900435 213.219825 
L 586.224793 208.939852 
L 593.54915 204.659879 
L 600.873508 200.379905 
L 608.197866 196.099932 
L 615.522223 191.819959 
L 622.846581 187.539985 
L 630.170939 183.260012 
L 637.495296 178.980038 
L 644.819654 174.700065 
L 652.144012 170.420092 
L 659.468369 166.140118 
L 666.792727 161.860145 
L 674.117085 157.580172 
L 681.441442 153.300198 
L 688.7658 149.020225 
L 696.090158 144.740251 
L 703.414515 140.460278 
L 710.738873 136.180305 
L 718.063231 131.900331 
L 725.387588 127.620358 
L 732.711946 123.340385 
L 740.036304 119.060411 
L 747.360661 114.780438 
L 754.685019 110.500464 
L 762.009377 106.220491 
L 769.333734 101.940518 
L 776.658092 97.660544 
L 783.98245 93.380571 
L 791.306807 89.100598 
L 798.631165 84.820624 
" clip-path="url(#p9c8d99127c)" style="fill: none; stroke-dasharray: 9.25,4; stroke-dashoffset: 0; stroke: #1f77b4; stroke-opacity: 0.8; stroke-width: 2.5"/>
   </g>
   <g id="line2d_78">
    <path d="M 73.519755 471.13663 
L 80.844113 469.792676 
L 88.168471 468.523425 
L 95.492828 467.321009 
L 102.817186 466.17874 
L 110.141544 465.090885 
L 117.465901 464.052496 
L 124.790259 463.059269 
L 132.114617 462.107438 
L 139.438974 461.193691 
L 146.763332 460.315097 
L 154.08769 459.469051 
L 161.412047 458.653228 
L 168.736405 457.865542 
L 176.060763 457.104117 
L 183.38512 456.367258 
L 190.709478 455.653431 
L 198.033836 454.961237 
L 205.358193 454.289406 
L 212.682551 453.636772 
L 220.006909 453.002269 
L 227.331266 452.384917 
L 234.655624 451.783813 
L 241.979982 451.198124 
L 249.304339 450.627079 
L 256.628697 450.069963 
L 263.953055 449.526112 
L 271.277413 448.994911 
L 278.60177 448.475783 
L 285.926128 447.968193 
L 293.250486 447.471638 
L 300.574843 446.985649 
L 307.899201 446.509785 
L 315.223559 446.043634 
L 322.547916 445.586806 
L 329.872274 445.138936 
L 337.196632 444.69968 
L 344.520989 444.268712 
L 351.845347 443.753264 
L 359.169705 441.48476 
L 366.494062 439.216256 
L 373.81842 436.947753 
L 381.142778 434.679249 
L 388.467135 432.410745 
L 395.791493 430.142241 
L 403.115851 427.873738 
L 410.440208 425.605234 
L 417.764566 423.33673 
L 425.088924 421.068226 
L 432.413281 418.799723 
L 439.737639 416.531219 
L 447.061997 414.262715 
L 454.386354 411.994211 
L 461.710712 409.725707 
L 469.03507 407.457204 
L 476.359427 405.1887 
L 483.683785 402.920196 
L 491.008143 400.651692 
L 498.3325 398.383189 
L 505.656858 396.114685 
L 512.981216 393.846181 
L 520.305573 391.577677 
L 527.629931 389.309173 
L 534.954289 387.04067 
L 542.278646 384.772166 
L 549.603004 382.503662 
L 556.927362 380.235158 
L 564.251719 377.966655 
L 571.576077 375.698151 
L 578.900435 373.429647 
L 586.224793 371.161143 
L 593.54915 368.892639 
L 600.873508 366.624136 
L 608.197866 364.355632 
L 615.522223 362.087128 
L 622.846581 359.818624 
L 630.170939 357.550121 
L 637.495296 355.281617 
L 644.819654 353.013113 
L 652.144012 350.744609 
L 659.468369 348.476105 
L 666.792727 346.207602 
L 674.117085 343.939098 
L 681.441442 341.670594 
L 688.7658 339.40209 
L 696.090158 337.133587 
L 703.414515 334.865083 
L 710.738873 332.596579 
L 718.063231 330.328075 
L 725.387588 328.059572 
L 732.711946 325.791068 
L 740.036304 323.522564 
L 747.360661 321.25406 
L 754.685019 318.985556 
L 762.009377 316.717053 
L 769.333734 314.448549 
L 776.658092 312.180045 
L 783.98245 309.911541 
L 791.306807 307.643038 
L 798.631165 305.374534 
" clip-path="url(#p9c8d99127c)" style="fill: none; stroke-dasharray: 9.25,4; stroke-dashoffset: 0; stroke: #ff7f0e; stroke-opacity: 0.8; stroke-width: 2.5"/>
   </g>
   <g id="line2d_79">
    <path d="M 73.519755 435.564348 
L 84.451083 432.219969 
L 95.382411 429.14225 
L 106.313739 426.29179 
L 117.245066 423.637324 
L 131.82017 420.359992 
L 146.395274 417.33914 
L 160.970378 414.537523 
L 179.189257 411.299144 
L 197.408137 408.311415 
L 215.627017 405.538308 
L 237.489672 402.453758 
L 259.352328 399.597439 
L 284.858759 396.511911 
L 310.365191 393.654754 
L 339.515398 390.628969 
L 368.665606 387.82311 
L 401.459589 384.892506 
L 434.253572 382.168675 
L 441.541124 381.936539 
L 448.828676 381.648214 
L 456.116228 381.16188 
L 463.40378 380.477538 
L 470.691332 379.595187 
L 477.978883 378.514828 
L 485.266435 377.236461 
L 492.553987 375.760085 
L 499.841539 374.0857 
L 507.129091 372.213307 
L 514.416643 370.142906 
L 521.704194 367.874496 
L 528.991746 365.408078 
L 536.279298 362.743651 
L 543.56685 359.881216 
L 550.854402 356.820772 
L 558.141954 353.56232 
L 565.429506 350.105859 
L 572.717057 346.45139 
L 580.004609 342.598912 
L 587.292161 338.548426 
L 594.579713 334.299931 
L 601.867265 329.853428 
L 609.154817 325.208916 
L 616.442369 320.366396 
L 623.72992 315.325868 
L 631.017472 310.087331 
L 638.305024 304.650785 
L 645.592576 299.016231 
L 652.880128 293.183669 
L 660.16768 287.153098 
L 667.455232 280.924518 
L 674.742783 274.49793 
L 685.674111 264.486783 
L 696.605439 254.030116 
L 707.536767 243.12793 
L 718.468095 231.780225 
L 729.399422 219.987001 
L 740.33075 207.748258 
L 751.262078 195.063996 
L 762.193406 181.934215 
L 773.124734 168.358914 
L 784.056061 154.338095 
L 794.987389 139.871757 
L 798.631165 134.95064 
L 798.631165 134.95064 
" clip-path="url(#p9c8d99127c)" style="fill: none; stroke-dasharray: 9.25,4; stroke-dashoffset: 0; stroke: #2ca02c; stroke-opacity: 0.8; stroke-width: 2.5"/>
   </g>
   <g id="line2d_80">
    <path d="M 73.519755 476.548259 
L 82.064839 474.249505 
L 90.609923 472.097807 
L 99.155007 470.075476 
L 107.700091 468.167834 
L 116.245175 466.362569 
L 124.790259 464.649249 
L 133.335343 463.01896 
L 141.880427 461.464025 
L 150.425511 459.977786 
L 158.970595 458.554428 
L 167.515679 457.188845 
L 176.060763 455.87653 
L 184.605847 454.613483 
L 193.150931 453.396138 
L 201.696015 452.221302 
L 210.241099 451.086107 
L 218.786183 449.987964 
L 227.331266 448.924532 
L 235.87635 447.893683 
L 244.421434 446.893479 
L 252.966518 445.922151 
L 261.511602 444.978078 
L 270.056686 444.059773 
L 278.60177 443.165866 
L 287.146854 442.295094 
L 295.691938 441.44629 
L 304.237022 440.618373 
L 312.782106 439.810338 
L 321.32719 437.253325 
L 329.872274 431.329273 
L 338.417358 425.405221 
L 346.962442 419.481169 
L 355.507526 413.557117 
L 364.05261 407.633065 
L 372.597694 401.709013 
L 381.142778 395.784961 
L 389.687862 389.860909 
L 398.232946 383.936857 
L 406.778029 378.012805 
L 415.323113 372.088753 
L 423.868197 366.164701 
L 432.413281 360.240649 
L 440.958365 354.316597 
L 449.503449 348.392545 
L 458.048533 342.468493 
L 466.593617 336.544441 
L 475.138701 330.620389 
L 483.683785 324.696337 
L 492.228869 318.772285 
L 500.773953 312.848233 
L 509.319037 306.924181 
L 517.864121 301.000129 
L 526.409205 295.076077 
L 534.954289 289.152025 
L 543.499373 283.227973 
L 552.044457 277.303921 
L 560.589541 271.379869 
L 569.134625 265.455817 
L 577.679709 259.531765 
L 586.224793 253.607713 
L 594.769876 247.683661 
L 603.31496 241.759609 
L 611.860044 235.835557 
L 620.405128 229.911505 
L 628.950212 223.987453 
L 637.495296 218.063401 
L 646.04038 212.139349 
L 654.585464 206.215297 
L 663.130548 200.291245 
L 671.675632 194.367193 
L 680.220716 188.443141 
L 688.7658 182.519089 
L 697.310884 176.595037 
L 705.855968 170.670985 
L 714.401052 164.746933 
L 722.946136 158.822881 
L 731.49122 152.898829 
L 740.036304 146.974777 
L 748.581388 141.050725 
L 757.126472 135.126673 
L 765.671556 129.202621 
L 774.216639 123.278569 
L 782.761723 117.354517 
L 791.306807 111.430465 
L 799.851891 105.506413 
L 808.396975 99.582361 
L 816.942059 93.658309 
L 825.487143 87.734257 
L 834.032227 81.810205 
L 842.577311 75.886153 
L 851.122395 69.962101 
L 859.667479 64.038049 
L 868.212563 58.113997 
L 876.757647 52.189945 
L 885.302731 46.265893 
L 893.847815 40.341841 
L 902.392899 34.417789 
L 910.937983 28.493737 
L 919.483067 22.569685 
" clip-path="url(#p9c8d99127c)" style="fill: none; stroke-dasharray: 9.25,4; stroke-dashoffset: 0; stroke: #d62728; stroke-opacity: 0.8; stroke-width: 2.5"/>
   </g>
   <g id="line2d_81">
    <path d="M 73.519755 492.338752 
L 82.064839 490.149217 
L 90.609923 488.09975 
L 99.155007 486.173504 
L 107.700091 484.356498 
L 116.245175 482.637003 
L 124.790259 481.005086 
L 133.335343 479.452255 
L 141.880427 477.971199 
L 150.425511 476.555573 
L 158.970595 475.199842 
L 167.515679 473.89914 
L 176.060763 472.649176 
L 184.605847 471.446138 
L 193.150931 470.286631 
L 201.696015 469.167614 
L 210.241099 468.086354 
L 218.786183 467.040387 
L 227.331266 466.02748 
L 235.87635 465.045608 
L 244.421434 464.092926 
L 252.966518 463.167747 
L 261.511602 462.268529 
L 270.056686 461.393855 
L 278.60177 460.542419 
L 287.146854 459.713019 
L 295.691938 458.904543 
L 304.237022 458.115961 
L 312.782106 457.346318 
L 321.32719 456.594726 
L 329.872274 455.860356 
L 338.417358 455.142437 
L 346.962442 454.440249 
L 355.507526 453.753117 
L 364.05261 453.080408 
L 372.597694 452.421529 
L 381.142778 451.775924 
L 389.687862 451.143068 
L 398.232946 450.522468 
L 406.778029 449.913657 
L 415.323113 448.022346 
L 423.868197 445.032145 
L 432.413281 442.041944 
L 440.958365 439.051743 
L 449.503449 436.061542 
L 458.048533 433.071341 
L 466.593617 430.08114 
L 475.138701 427.090939 
L 483.683785 424.100738 
L 492.228869 421.110537 
L 500.773953 418.120336 
L 509.319037 415.130135 
L 517.864121 412.139934 
L 526.409205 409.149733 
L 534.954289 406.159532 
L 543.499373 403.169331 
L 552.044457 400.17913 
L 560.589541 397.188929 
L 569.134625 394.198728 
L 577.679709 391.208528 
L 586.224793 388.218327 
L 594.769876 385.228126 
L 603.31496 382.237925 
L 611.860044 379.247724 
L 620.405128 376.257523 
L 628.950212 373.267322 
L 637.495296 370.277121 
L 646.04038 367.28692 
L 654.585464 364.296719 
L 663.130548 361.306518 
L 671.675632 358.316317 
L 680.220716 355.326116 
L 688.7658 352.335915 
L 697.310884 349.345714 
L 705.855968 346.355513 
L 714.401052 343.365312 
L 722.946136 340.375111 
L 731.49122 337.38491 
L 740.036304 334.394709 
L 748.581388 331.404508 
L 757.126472 328.414307 
L 765.671556 325.424106 
L 774.216639 322.433905 
L 782.761723 319.443704 
L 791.306807 316.453504 
L 799.851891 313.463303 
L 808.396975 310.473102 
L 816.942059 307.482901 
L 825.487143 304.4927 
L 834.032227 301.502499 
L 842.577311 298.512298 
L 851.122395 295.522097 
L 859.667479 292.531896 
L 868.212563 289.541695 
L 876.757647 286.551494 
L 885.302731 283.561293 
L 893.847815 280.571092 
L 902.392899 277.580891 
L 910.937983 274.59069 
L 919.483067 271.600489 
" clip-path="url(#p9c8d99127c)" style="fill: none; stroke-dasharray: 9.25,4; stroke-dashoffset: 0; stroke: #9467bd; stroke-opacity: 0.8; stroke-width: 2.5"/>
   </g>
   <g id="line2d_82">
    <path d="M 73.519755 492.675045 
L 82.064839 491.169216 
L 90.609923 489.759718 
L 99.155007 488.434964 
L 107.700091 487.185338 
L 116.245175 486.002775 
L 124.790259 484.880442 
L 133.335343 483.8125 
L 141.880427 482.793919 
L 150.425511 481.820339 
L 158.970595 480.887949 
L 167.515679 479.993406 
L 176.060763 479.133757 
L 184.605847 478.306381 
L 193.150931 477.508943 
L 201.696015 476.739351 
L 210.241099 475.995727 
L 218.786183 475.276374 
L 227.331266 474.579759 
L 235.87635 473.904487 
L 244.421434 473.249291 
L 252.966518 472.61301 
L 261.511602 471.994582 
L 270.056686 471.393035 
L 278.60177 470.807469 
L 287.146854 470.237058 
L 295.691938 469.681038 
L 304.237022 469.1387 
L 312.782106 468.609386 
L 321.32719 468.092487 
L 329.872274 467.587432 
L 338.417358 467.093691 
L 346.962442 466.610769 
L 355.507526 466.138202 
L 364.05261 465.675553 
L 372.597694 465.222417 
L 381.142778 464.77841 
L 389.687862 464.34317 
L 398.232946 463.916359 
L 406.778029 463.497655 
L 415.323113 463.086758 
L 423.868197 462.683381 
L 432.413281 462.287254 
L 440.958365 461.89812 
L 449.503449 461.515738 
L 458.048533 461.139876 
L 466.593617 460.770316 
L 475.138701 460.406851 
L 483.683785 460.049283 
L 492.228869 459.579981 
L 500.773953 457.723614 
L 509.319037 455.867248 
L 517.864121 454.010881 
L 526.409205 452.154514 
L 534.954289 450.298148 
L 543.499373 448.441781 
L 552.044457 446.585414 
L 560.589541 444.729047 
L 569.134625 442.872681 
L 577.679709 441.016314 
L 586.224793 439.159947 
L 594.769876 437.303581 
L 603.31496 435.447214 
L 611.860044 433.590847 
L 620.405128 431.734481 
L 628.950212 429.878114 
L 637.495296 428.021747 
L 646.04038 426.165381 
L 654.585464 424.309014 
L 663.130548 422.452647 
L 671.675632 420.596281 
L 680.220716 418.739914 
L 688.7658 416.883547 
L 697.310884 415.027181 
L 705.855968 413.170814 
L 714.401052 411.314447 
L 722.946136 409.458081 
L 731.49122 407.601714 
L 740.036304 405.745347 
L 748.581388 403.888981 
L 757.126472 402.032614 
L 765.671556 400.176247 
L 774.216639 398.319881 
L 782.761723 396.463514 
L 791.306807 394.607147 
L 799.851891 392.750781 
L 808.396975 390.894414 
L 816.942059 389.038047 
L 825.487143 387.181681 
L 834.032227 385.325314 
L 842.577311 383.468947 
L 851.122395 381.612581 
L 859.667479 379.756214 
L 868.212563 377.899847 
L 876.757647 376.043481 
L 885.302731 374.187114 
L 893.847815 372.330747 
L 902.392899 370.474381 
L 910.937983 368.618014 
L 919.483067 366.761647 
" clip-path="url(#p9c8d99127c)" style="fill: none; stroke-dasharray: 9.25,4; stroke-dashoffset: 0; stroke: #8c564b; stroke-opacity: 0.8; stroke-width: 2.5"/>
   </g>
   <g id="patch_3">
    <path d="M 49.349375 527.4775 
L 49.349375 25.3575 
" style="fill: none; stroke: #000000; stroke-width: 0.8; stroke-linejoin: miter; stroke-linecap: square"/>
   </g>
   <g id="patch_4">
    <path d="M 943.653447 527.4775 
L 943.653447 25.3575 
" style="fill: none; stroke: #000000; stroke-width: 0.8; stroke-linejoin: miter; stroke-linecap: square"/>
   </g>
   <g id="patch_5">
    <path d="M 49.349375 527.4775 
L 943.653447 527.4775 
" style="fill: none; stroke: #000000; stroke-width: 0.8; stroke-linejoin: miter; stroke-linecap: square"/>
   </g>
   <g id="patch_6">
    <path d="M 49.349375 25.3575 
L 943.653447 25.3575 
" style="fill: none; stroke: #000000; stroke-width: 0.8; stroke-linejoin: miter; stroke-linecap: square"/>
   </g>
   <g id="text_14">
    <!-- LLM_Pruner w/o -->
    <g style="fill: #1f77b4" transform="translate(810.716355 104.882682) scale(0.1 -0.1)">
     <defs>
      <path id="DejaVuSans-4d" d="M 628 4666 
L 1569 4666 
L 2759 1491 
L 3956 4666 
L 4897 4666 
L 4897 0 
L 4281 0 
L 4281 4097 
L 3078 897 
L 2444 897 
L 1241 4097 
L 1241 0 
L 628 0 
L 628 4666 
z
" transform="scale(0.015625)"/>
      <path id="DejaVuSans-5f" d="M 3263 -1063 
L 3263 -1509 
L -63 -1509 
L -63 -1063 
L 3263 -1063 
z
" transform="scale(0.015625)"/>
      <path id="DejaVuSans-75" d="M 544 1381 
L 544 3500 
L 1119 3500 
L 1119 1403 
Q 1119 906 1312 657 
Q 1506 409 1894 409 
Q 2359 409 2629 706 
Q 2900 1003 2900 1516 
L 2900 3500 
L 3475 3500 
L 3475 0 
L 2900 0 
L 2900 538 
Q 2691 219 2414 64 
Q 2138 -91 1772 -91 
Q 1169 -91 856 284 
Q 544 659 544 1381 
z
M 1991 3584 
L 1991 3584 
z
" transform="scale(0.015625)"/>
      <path id="DejaVuSans-6e" d="M 3513 2113 
L 3513 0 
L 2938 0 
L 2938 2094 
Q 2938 2591 2744 2837 
Q 2550 3084 2163 3084 
Q 1697 3084 1428 2787 
Q 1159 2491 1159 1978 
L 1159 0 
L 581 0 
L 581 3500 
L 1159 3500 
L 1159 2956 
Q 1366 3272 1645 3428 
Q 1925 3584 2291 3584 
Q 2894 3584 3203 3211 
Q 3513 2838 3513 2113 
z
" transform="scale(0.015625)"/>
      <path id="DejaVuSans-77" d="M 269 3500 
L 844 3500 
L 1563 769 
L 2278 3500 
L 2956 3500 
L 3675 769 
L 4391 3500 
L 4966 3500 
L 4050 0 
L 3372 0 
L 2619 2869 
L 1863 0 
L 1184 0 
L 269 3500 
z
" transform="scale(0.015625)"/>
      <path id="DejaVuSans-2f" d="M 1625 4666 
L 2156 4666 
L 531 -594 
L 0 -594 
L 1625 4666 
z
" transform="scale(0.015625)"/>
     </defs>
     <use xlink:href="#DejaVuSans-4c"/>
     <use xlink:href="#DejaVuSans-4c" transform="translate(55.712891 0)"/>
     <use xlink:href="#DejaVuSans-4d" transform="translate(111.425781 0)"/>
     <use xlink:href="#DejaVuSans-5f" transform="translate(197.705078 0)"/>
     <use xlink:href="#DejaVuSans-50" transform="translate(247.705078 0)"/>
     <use xlink:href="#DejaVuSans-72" transform="translate(306.257812 0)"/>
     <use xlink:href="#DejaVuSans-75" transform="translate(347.371094 0)"/>
     <use xlink:href="#DejaVuSans-6e" transform="translate(410.75 0)"/>
     <use xlink:href="#DejaVuSans-65" transform="translate(474.128906 0)"/>
     <use xlink:href="#DejaVuSans-72" transform="translate(535.652344 0)"/>
     <use xlink:href="#DejaVuSans-20" transform="translate(576.765625 0)"/>
     <use xlink:href="#DejaVuSans-77" transform="translate(608.552734 0)"/>
     <use xlink:href="#DejaVuSans-2f" transform="translate(690.339844 0)"/>
     <use xlink:href="#DejaVuSans-6f" transform="translate(724.03125 0)"/>
    </g>
   </g>
   <g id="text_15">
    <!-- LLM_Pruner -->
    <g style="fill: #ff7f0e" transform="translate(810.716355 298.152525) scale(0.1 -0.1)">
     <use xlink:href="#DejaVuSans-4c"/>
     <use xlink:href="#DejaVuSans-4c" transform="translate(55.712891 0)"/>
     <use xlink:href="#DejaVuSans-4d" transform="translate(111.425781 0)"/>
     <use xlink:href="#DejaVuSans-5f" transform="translate(197.705078 0)"/>
     <use xlink:href="#DejaVuSans-50" transform="translate(247.705078 0)"/>
     <use xlink:href="#DejaVuSans-72" transform="translate(306.257812 0)"/>
     <use xlink:href="#DejaVuSans-75" transform="translate(347.371094 0)"/>
     <use xlink:href="#DejaVuSans-6e" transform="translate(410.75 0)"/>
     <use xlink:href="#DejaVuSans-65" transform="translate(474.128906 0)"/>
     <use xlink:href="#DejaVuSans-72" transform="translate(535.652344 0)"/>
    </g>
   </g>
   <g id="text_16">
    <!-- FLAP(WIFV) -->
    <g style="fill: #2ca02c" transform="translate(810.716355 136.595779) scale(0.1 -0.1)">
     <defs>
      <path id="DejaVuSans-46" d="M 628 4666 
L 3309 4666 
L 3309 4134 
L 1259 4134 
L 1259 2759 
L 3109 2759 
L 3109 2228 
L 1259 2228 
L 1259 0 
L 628 0 
L 628 4666 
z
" transform="scale(0.015625)"/>
      <path id="DejaVuSans-41" d="M 2188 4044 
L 1331 1722 
L 3047 1722 
L 2188 4044 
z
M 1831 4666 
L 2547 4666 
L 4325 0 
L 3669 0 
L 3244 1197 
L 1141 1197 
L 716 0 
L 50 0 
L 1831 4666 
z
" transform="scale(0.015625)"/>
      <path id="DejaVuSans-57" d="M 213 4666 
L 850 4666 
L 1831 722 
L 2809 4666 
L 3519 4666 
L 4500 722 
L 5478 4666 
L 6119 4666 
L 4947 0 
L 4153 0 
L 3169 4050 
L 2175 0 
L 1381 0 
L 213 4666 
z
" transform="scale(0.015625)"/>
      <path id="DejaVuSans-49" d="M 628 4666 
L 1259 4666 
L 1259 0 
L 628 0 
L 628 4666 
z
" transform="scale(0.015625)"/>
      <path id="DejaVuSans-56" d="M 1831 0 
L 50 4666 
L 709 4666 
L 2188 738 
L 3669 4666 
L 4325 4666 
L 2547 0 
L 1831 0 
z
" transform="scale(0.015625)"/>
     </defs>
     <use xlink:href="#DejaVuSans-46"/>
     <use xlink:href="#DejaVuSans-4c" transform="translate(57.519531 0)"/>
     <use xlink:href="#DejaVuSans-41" transform="translate(115.482422 0)"/>
     <use xlink:href="#DejaVuSans-50" transform="translate(183.890625 0)"/>
     <use xlink:href="#DejaVuSans-28" transform="translate(244.193359 0)"/>
     <use xlink:href="#DejaVuSans-57" transform="translate(283.207031 0)"/>
     <use xlink:href="#DejaVuSans-49" transform="translate(382.083984 0)"/>
     <use xlink:href="#DejaVuSans-46" transform="translate(411.576172 0)"/>
     <use xlink:href="#DejaVuSans-56" transform="translate(469.095703 0)"/>
     <use xlink:href="#DejaVuSans-29" transform="translate(537.503906 0)"/>
    </g>
   </g>
   <g id="text_17">
    <!-- SLEB -->
    <g style="fill: #d62728" transform="translate(931.568257 65.727581) scale(0.1 -0.1)">
     <defs>
      <path id="DejaVuSans-45" d="M 628 4666 
L 3578 4666 
L 3578 4134 
L 1259 4134 
L 1259 2753 
L 3481 2753 
L 3481 2222 
L 1259 2222 
L 1259 531 
L 3634 531 
L 3634 0 
L 628 0 
L 628 4666 
z
" transform="scale(0.015625)"/>
      <path id="DejaVuSans-42" d="M 1259 2228 
L 1259 519 
L 2272 519 
Q 2781 519 3026 730 
Q 3272 941 3272 1375 
Q 3272 1813 3026 2020 
Q 2781 2228 2272 2228 
L 1259 2228 
z
M 1259 4147 
L 1259 2741 
L 2194 2741 
Q 2656 2741 2882 2914 
Q 3109 3088 3109 3444 
Q 3109 3797 2882 3972 
Q 2656 4147 2194 4147 
L 1259 4147 
z
M 628 4666 
L 2241 4666 
Q 2963 4666 3353 4366 
Q 3744 4066 3744 3513 
Q 3744 3084 3544 2831 
Q 3344 2578 2956 2516 
Q 3422 2416 3680 2098 
Q 3938 1781 3938 1306 
Q 3938 681 3513 340 
Q 3088 0 2303 0 
L 628 0 
L 628 4666 
z
" transform="scale(0.015625)"/>
     </defs>
     <use xlink:href="#DejaVuSans-53"/>
     <use xlink:href="#DejaVuSans-4c" transform="translate(63.476562 0)"/>
     <use xlink:href="#DejaVuSans-45" transform="translate(119.189453 0)"/>
     <use xlink:href="#DejaVuSans-42" transform="translate(182.373047 0)"/>
    </g>
   </g>
   <g id="text_18">
    <!-- slicegpt w/o -->
    <g style="fill: #9467bd" transform="translate(931.568257 259.975036) scale(0.1 -0.1)">
     <defs>
      <path id="DejaVuSans-63" d="M 3122 3366 
L 3122 2828 
Q 2878 2963 2633 3030 
Q 2388 3097 2138 3097 
Q 1578 3097 1268 2742 
Q 959 2388 959 1747 
Q 959 1106 1268 751 
Q 1578 397 2138 397 
Q 2388 397 2633 464 
Q 2878 531 3122 666 
L 3122 134 
Q 2881 22 2623 -34 
Q 2366 -91 2075 -91 
Q 1284 -91 818 406 
Q 353 903 353 1747 
Q 353 2603 823 3093 
Q 1294 3584 2113 3584 
Q 2378 3584 2631 3529 
Q 2884 3475 3122 3366 
z
" transform="scale(0.015625)"/>
      <path id="DejaVuSans-67" d="M 2906 1791 
Q 2906 2416 2648 2759 
Q 2391 3103 1925 3103 
Q 1463 3103 1205 2759 
Q 947 2416 947 1791 
Q 947 1169 1205 825 
Q 1463 481 1925 481 
Q 2391 481 2648 825 
Q 2906 1169 2906 1791 
z
M 3481 434 
Q 3481 -459 3084 -895 
Q 2688 -1331 1869 -1331 
Q 1566 -1331 1297 -1286 
Q 1028 -1241 775 -1147 
L 775 -588 
Q 1028 -725 1275 -790 
Q 1522 -856 1778 -856 
Q 2344 -856 2625 -561 
Q 2906 -266 2906 331 
L 2906 616 
Q 2728 306 2450 153 
Q 2172 0 1784 0 
Q 1141 0 747 490 
Q 353 981 353 1791 
Q 353 2603 747 3093 
Q 1141 3584 1784 3584 
Q 2172 3584 2450 3431 
Q 2728 3278 2906 2969 
L 2906 3500 
L 3481 3500 
L 3481 434 
z
" transform="scale(0.015625)"/>
     </defs>
     <use xlink:href="#DejaVuSans-73"/>
     <use xlink:href="#DejaVuSans-6c" transform="translate(52.099609 0)"/>
     <use xlink:href="#DejaVuSans-69" transform="translate(79.882812 0)"/>
     <use xlink:href="#DejaVuSans-63" transform="translate(107.666016 0)"/>
     <use xlink:href="#DejaVuSans-65" transform="translate(162.646484 0)"/>
     <use xlink:href="#DejaVuSans-67" transform="translate(224.169922 0)"/>
     <use xlink:href="#DejaVuSans-70" transform="translate(287.646484 0)"/>
     <use xlink:href="#DejaVuSans-74" transform="translate(351.123047 0)"/>
     <use xlink:href="#DejaVuSans-20" transform="translate(390.332031 0)"/>
     <use xlink:href="#DejaVuSans-77" transform="translate(422.119141 0)"/>
     <use xlink:href="#DejaVuSans-2f" transform="translate(503.90625 0)"/>
     <use xlink:href="#DejaVuSans-6f" transform="translate(537.597656 0)"/>
    </g>
   </g>
   <g id="text_19">
    <!-- slicegpt -->
    <g style="fill: #8c564b" transform="translate(931.568257 363.99204) scale(0.1 -0.1)">
     <use xlink:href="#DejaVuSans-73"/>
     <use xlink:href="#DejaVuSans-6c" transform="translate(52.099609 0)"/>
     <use xlink:href="#DejaVuSans-69" transform="translate(79.882812 0)"/>
     <use xlink:href="#DejaVuSans-63" transform="translate(107.666016 0)"/>
     <use xlink:href="#DejaVuSans-65" transform="translate(162.646484 0)"/>
     <use xlink:href="#DejaVuSans-67" transform="translate(224.169922 0)"/>
     <use xlink:href="#DejaVuSans-70" transform="translate(287.646484 0)"/>
     <use xlink:href="#DejaVuSans-74" transform="translate(351.123047 0)"/>
    </g>
   </g>
   <g id="text_20">
    <!-- Structured Pruning: Performance vs Sparsity -->
    <g transform="translate(318.660161 19.3575) scale(0.16 -0.16)">
     <defs>
      <path id="DejaVuSans-64" d="M 2906 2969 
L 2906 4863 
L 3481 4863 
L 3481 0 
L 2906 0 
L 2906 525 
Q 2725 213 2448 61 
Q 2172 -91 1784 -91 
Q 1150 -91 751 415 
Q 353 922 353 1747 
Q 353 2572 751 3078 
Q 1150 3584 1784 3584 
Q 2172 3584 2448 3432 
Q 2725 3281 2906 2969 
z
M 947 1747 
Q 947 1113 1208 752 
Q 1469 391 1925 391 
Q 2381 391 2643 752 
Q 2906 1113 2906 1747 
Q 2906 2381 2643 2742 
Q 2381 3103 1925 3103 
Q 1469 3103 1208 2742 
Q 947 2381 947 1747 
z
" transform="scale(0.015625)"/>
      <path id="DejaVuSans-3a" d="M 750 794 
L 1409 794 
L 1409 0 
L 750 0 
L 750 794 
z
M 750 3309 
L 1409 3309 
L 1409 2516 
L 750 2516 
L 750 3309 
z
" transform="scale(0.015625)"/>
      <path id="DejaVuSans-66" d="M 2375 4863 
L 2375 4384 
L 1825 4384 
Q 1516 4384 1395 4259 
Q 1275 4134 1275 3809 
L 1275 3500 
L 2222 3500 
L 2222 3053 
L 1275 3053 
L 1275 0 
L 697 0 
L 697 3053 
L 147 3053 
L 147 3500 
L 697 3500 
L 697 3744 
Q 697 4328 969 4595 
Q 1241 4863 1831 4863 
L 2375 4863 
z
" transform="scale(0.015625)"/>
      <path id="DejaVuSans-6d" d="M 3328 2828 
Q 3544 3216 3844 3400 
Q 4144 3584 4550 3584 
Q 5097 3584 5394 3201 
Q 5691 2819 5691 2113 
L 5691 0 
L 5113 0 
L 5113 2094 
Q 5113 2597 4934 2840 
Q 4756 3084 4391 3084 
Q 3944 3084 3684 2787 
Q 3425 2491 3425 1978 
L 3425 0 
L 2847 0 
L 2847 2094 
Q 2847 2600 2669 2842 
Q 2491 3084 2119 3084 
Q 1678 3084 1418 2786 
Q 1159 2488 1159 1978 
L 1159 0 
L 581 0 
L 581 3500 
L 1159 3500 
L 1159 2956 
Q 1356 3278 1631 3431 
Q 1906 3584 2284 3584 
Q 2666 3584 2933 3390 
Q 3200 3197 3328 2828 
z
" transform="scale(0.015625)"/>
      <path id="DejaVuSans-76" d="M 191 3500 
L 800 3500 
L 1894 563 
L 2988 3500 
L 3597 3500 
L 2284 0 
L 1503 0 
L 191 3500 
z
" transform="scale(0.015625)"/>
     </defs>
     <use xlink:href="#DejaVuSans-53"/>
     <use xlink:href="#DejaVuSans-74" transform="translate(63.476562 0)"/>
     <use xlink:href="#DejaVuSans-72" transform="translate(102.685547 0)"/>
     <use xlink:href="#DejaVuSans-75" transform="translate(143.798828 0)"/>
     <use xlink:href="#DejaVuSans-63" transform="translate(207.177734 0)"/>
     <use xlink:href="#DejaVuSans-74" transform="translate(262.158203 0)"/>
     <use xlink:href="#DejaVuSans-75" transform="translate(301.367188 0)"/>
     <use xlink:href="#DejaVuSans-72" transform="translate(364.746094 0)"/>
     <use xlink:href="#DejaVuSans-65" transform="translate(403.609375 0)"/>
     <use xlink:href="#DejaVuSans-64" transform="translate(465.132812 0)"/>
     <use xlink:href="#DejaVuSans-20" transform="translate(528.609375 0)"/>
     <use xlink:href="#DejaVuSans-50" transform="translate(560.396484 0)"/>
     <use xlink:href="#DejaVuSans-72" transform="translate(618.949219 0)"/>
     <use xlink:href="#DejaVuSans-75" transform="translate(660.0625 0)"/>
     <use xlink:href="#DejaVuSans-6e" transform="translate(723.441406 0)"/>
     <use xlink:href="#DejaVuSans-69" transform="translate(786.820312 0)"/>
     <use xlink:href="#DejaVuSans-6e" transform="translate(814.603516 0)"/>
     <use xlink:href="#DejaVuSans-67" transform="translate(877.982422 0)"/>
     <use xlink:href="#DejaVuSans-3a" transform="translate(941.458984 0)"/>
     <use xlink:href="#DejaVuSans-20" transform="translate(975.150391 0)"/>
     <use xlink:href="#DejaVuSans-50" transform="translate(1006.9375 0)"/>
     <use xlink:href="#DejaVuSans-65" transform="translate(1063.615234 0)"/>
     <use xlink:href="#DejaVuSans-72" transform="translate(1125.138672 0)"/>
     <use xlink:href="#DejaVuSans-66" transform="translate(1166.251953 0)"/>
     <use xlink:href="#DejaVuSans-6f" transform="translate(1201.457031 0)"/>
     <use xlink:href="#DejaVuSans-72" transform="translate(1262.638672 0)"/>
     <use xlink:href="#DejaVuSans-6d" transform="translate(1302.001953 0)"/>
     <use xlink:href="#DejaVuSans-61" transform="translate(1399.414062 0)"/>
     <use xlink:href="#DejaVuSans-6e" transform="translate(1460.693359 0)"/>
     <use xlink:href="#DejaVuSans-63" transform="translate(1524.072266 0)"/>
     <use xlink:href="#DejaVuSans-65" transform="translate(1579.052734 0)"/>
     <use xlink:href="#DejaVuSans-20" transform="translate(1640.576172 0)"/>
     <use xlink:href="#DejaVuSans-76" transform="translate(1672.363281 0)"/>
     <use xlink:href="#DejaVuSans-73" transform="translate(1731.542969 0)"/>
     <use xlink:href="#DejaVuSans-20" transform="translate(1783.642578 0)"/>
     <use xlink:href="#DejaVuSans-53" transform="translate(1815.429688 0)"/>
     <use xlink:href="#DejaVuSans-70" transform="translate(1878.90625 0)"/>
     <use xlink:href="#DejaVuSans-61" transform="translate(1942.382812 0)"/>
     <use xlink:href="#DejaVuSans-72" transform="translate(2003.662109 0)"/>
     <use xlink:href="#DejaVuSans-73" transform="translate(2044.775391 0)"/>
     <use xlink:href="#DejaVuSans-69" transform="translate(2096.875 0)"/>
     <use xlink:href="#DejaVuSans-74" transform="translate(2124.658203 0)"/>
     <use xlink:href="#DejaVuSans-79" transform="translate(2163.867188 0)"/>
    </g>
   </g>
   <g id="legend_1">
    <g id="patch_7">
     <path d="M 57.049375 83.207187 
L 297.287656 83.207187 
Q 299.487656 83.207187 299.487656 81.007187 
L 299.487656 33.0575 
Q 299.487656 30.8575 297.287656 30.8575 
L 57.049375 30.8575 
Q 54.849375 30.8575 54.849375 33.0575 
L 54.849375 81.007187 
Q 54.849375 83.207187 57.049375 83.207187 
z
" style="fill: #ffffff; opacity: 0.9; stroke: #cccccc; stroke-linejoin: miter"/>
    </g>
    <g id="line2d_83">
     <path d="M 59.249375 39.765781 
L 70.249375 39.765781 
L 81.249375 39.765781 
" style="fill: none; stroke-dasharray: 9.25,4; stroke-dashoffset: 0; stroke: #1f77b4; stroke-opacity: 0.8; stroke-width: 2.5"/>
    </g>
    <g id="text_21">
     <!-- LLM_Pruner w/o -->
     <g transform="translate(90.049375 43.615781) scale(0.11 -0.11)">
      <use xlink:href="#DejaVuSans-4c"/>
      <use xlink:href="#DejaVuSans-4c" transform="translate(55.712891 0)"/>
      <use xlink:href="#DejaVuSans-4d" transform="translate(111.425781 0)"/>
      <use xlink:href="#DejaVuSans-5f" transform="translate(197.705078 0)"/>
      <use xlink:href="#DejaVuSans-50" transform="translate(247.705078 0)"/>
      <use xlink:href="#DejaVuSans-72" transform="translate(306.257812 0)"/>
      <use xlink:href="#DejaVuSans-75" transform="translate(347.371094 0)"/>
      <use xlink:href="#DejaVuSans-6e" transform="translate(410.75 0)"/>
      <use xlink:href="#DejaVuSans-65" transform="translate(474.128906 0)"/>
      <use xlink:href="#DejaVuSans-72" transform="translate(535.652344 0)"/>
      <use xlink:href="#DejaVuSans-20" transform="translate(576.765625 0)"/>
      <use xlink:href="#DejaVuSans-77" transform="translate(608.552734 0)"/>
      <use xlink:href="#DejaVuSans-2f" transform="translate(690.339844 0)"/>
      <use xlink:href="#DejaVuSans-6f" transform="translate(724.03125 0)"/>
     </g>
    </g>
    <g id="line2d_84">
     <path d="M 59.249375 56.217656 
L 70.249375 56.217656 
L 81.249375 56.217656 
" style="fill: none; stroke-dasharray: 9.25,4; stroke-dashoffset: 0; stroke: #ff7f0e; stroke-opacity: 0.8; stroke-width: 2.5"/>
    </g>
    <g id="text_22">
     <!-- LLM_Pruner -->
     <g transform="translate(90.049375 60.067656) scale(0.11 -0.11)">
      <use xlink:href="#DejaVuSans-4c"/>
      <use xlink:href="#DejaVuSans-4c" transform="translate(55.712891 0)"/>
      <use xlink:href="#DejaVuSans-4d" transform="translate(111.425781 0)"/>
      <use xlink:href="#DejaVuSans-5f" transform="translate(197.705078 0)"/>
      <use xlink:href="#DejaVuSans-50" transform="translate(247.705078 0)"/>
      <use xlink:href="#DejaVuSans-72" transform="translate(306.257812 0)"/>
      <use xlink:href="#DejaVuSans-75" transform="translate(347.371094 0)"/>
      <use xlink:href="#DejaVuSans-6e" transform="translate(410.75 0)"/>
      <use xlink:href="#DejaVuSans-65" transform="translate(474.128906 0)"/>
      <use xlink:href="#DejaVuSans-72" transform="translate(535.652344 0)"/>
     </g>
    </g>
    <g id="line2d_85">
     <path d="M 59.249375 72.669531 
L 70.249375 72.669531 
L 81.249375 72.669531 
" style="fill: none; stroke-dasharray: 9.25,4; stroke-dashoffset: 0; stroke: #2ca02c; stroke-opacity: 0.8; stroke-width: 2.5"/>
    </g>
    <g id="text_23">
     <!-- FLAP(WIFV) -->
     <g transform="translate(90.049375 76.519531) scale(0.11 -0.11)">
      <use xlink:href="#DejaVuSans-46"/>
      <use xlink:href="#DejaVuSans-4c" transform="translate(57.519531 0)"/>
      <use xlink:href="#DejaVuSans-41" transform="translate(115.482422 0)"/>
      <use xlink:href="#DejaVuSans-50" transform="translate(183.890625 0)"/>
      <use xlink:href="#DejaVuSans-28" transform="translate(244.193359 0)"/>
      <use xlink:href="#DejaVuSans-57" transform="translate(283.207031 0)"/>
      <use xlink:href="#DejaVuSans-49" transform="translate(382.083984 0)"/>
      <use xlink:href="#DejaVuSans-46" transform="translate(411.576172 0)"/>
      <use xlink:href="#DejaVuSans-56" transform="translate(469.095703 0)"/>
      <use xlink:href="#DejaVuSans-29" transform="translate(537.503906 0)"/>
     </g>
    </g>
    <g id="line2d_86">
     <path d="M 198.421719 39.765781 
L 209.421719 39.765781 
L 220.421719 39.765781 
" style="fill: none; stroke-dasharray: 9.25,4; stroke-dashoffset: 0; stroke: #d62728; stroke-opacity: 0.8; stroke-width: 2.5"/>
    </g>
    <g id="text_24">
     <!-- SLEB -->
     <g transform="translate(229.221719 43.615781) scale(0.11 -0.11)">
      <use xlink:href="#DejaVuSans-53"/>
      <use xlink:href="#DejaVuSans-4c" transform="translate(63.476562 0)"/>
      <use xlink:href="#DejaVuSans-45" transform="translate(119.189453 0)"/>
      <use xlink:href="#DejaVuSans-42" transform="translate(182.373047 0)"/>
     </g>
    </g>
    <g id="line2d_87">
     <path d="M 198.421719 55.911719 
L 209.421719 55.911719 
L 220.421719 55.911719 
" style="fill: none; stroke-dasharray: 9.25,4; stroke-dashoffset: 0; stroke: #9467bd; stroke-opacity: 0.8; stroke-width: 2.5"/>
    </g>
    <g id="text_25">
     <!-- slicegpt w/o -->
     <g transform="translate(229.221719 59.761719) scale(0.11 -0.11)">
      <use xlink:href="#DejaVuSans-73"/>
      <use xlink:href="#DejaVuSans-6c" transform="translate(52.099609 0)"/>
      <use xlink:href="#DejaVuSans-69" transform="translate(79.882812 0)"/>
      <use xlink:href="#DejaVuSans-63" transform="translate(107.666016 0)"/>
      <use xlink:href="#DejaVuSans-65" transform="translate(162.646484 0)"/>
      <use xlink:href="#DejaVuSans-67" transform="translate(224.169922 0)"/>
      <use xlink:href="#DejaVuSans-70" transform="translate(287.646484 0)"/>
      <use xlink:href="#DejaVuSans-74" transform="translate(351.123047 0)"/>
      <use xlink:href="#DejaVuSans-20" transform="translate(390.332031 0)"/>
      <use xlink:href="#DejaVuSans-77" transform="translate(422.119141 0)"/>
      <use xlink:href="#DejaVuSans-2f" transform="translate(503.90625 0)"/>
      <use xlink:href="#DejaVuSans-6f" transform="translate(537.597656 0)"/>
     </g>
    </g>
    <g id="line2d_88">
     <path d="M 198.421719 72.057656 
L 209.421719 72.057656 
L 220.421719 72.057656 
" style="fill: none; stroke-dasharray: 9.25,4; stroke-dashoffset: 0; stroke: #8c564b; stroke-opacity: 0.8; stroke-width: 2.5"/>
    </g>
    <g id="text_26">
     <!-- slicegpt -->
     <g transform="translate(229.221719 75.907656) scale(0.11 -0.11)">
      <use xlink:href="#DejaVuSans-73"/>
      <use xlink:href="#DejaVuSans-6c" transform="translate(52.099609 0)"/>
      <use xlink:href="#DejaVuSans-69" transform="translate(79.882812 0)"/>
      <use xlink:href="#DejaVuSans-63" transform="translate(107.666016 0)"/>
      <use xlink:href="#DejaVuSans-65" transform="translate(162.646484 0)"/>
      <use xlink:href="#DejaVuSans-67" transform="translate(224.169922 0)"/>
      <use xlink:href="#DejaVuSans-70" transform="translate(287.646484 0)"/>
      <use xlink:href="#DejaVuSans-74" transform="translate(351.123047 0)"/>
     </g>
    </g>
   </g>
   <g id="PathCollection_1">
    <defs>
     <path id="m8b725fe95b" d="M 0 4.472136 
C 1.186024 4.472136 2.323632 4.000923 3.162278 3.162278 
C 4.000923 2.323632 4.472136 1.186024 4.472136 0 
C 4.472136 -1.186024 4.000923 -2.323632 3.162278 -3.162278 
C 2.323632 -4.000923 1.186024 -4.472136 0 -4.472136 
C -1.186024 -4.472136 -2.323632 -4.000923 -3.162278 -3.162278 
C -4.000923 -2.323632 -4.472136 -1.186024 -4.472136 0 
C -4.472136 1.186024 -4.000923 2.323632 -3.162278 3.162278 
C -2.323632 4.000923 -1.186024 4.472136 0 4.472136 
z
" style="stroke: #000000; stroke-opacity: 0.9"/>
    </defs>
    <g clip-path="url(#p9c8d99127c)">
     <use xlink:href="#m8b725fe95b" x="73.519755" y="424.03312" style="fill: #1f77b4; fill-opacity: 0.9; stroke: #000000; stroke-opacity: 0.9"/>
     <use xlink:href="#m8b725fe95b" x="194.371657" y="399.048168" style="fill: #1f77b4; fill-opacity: 0.9; stroke: #000000; stroke-opacity: 0.9"/>
     <use xlink:href="#m8b725fe95b" x="315.223559" y="377.632494" style="fill: #1f77b4; fill-opacity: 0.9; stroke: #000000; stroke-opacity: 0.9"/>
     <use xlink:href="#m8b725fe95b" x="436.07546" y="314.178647" style="fill: #1f77b4; fill-opacity: 0.9; stroke: #000000; stroke-opacity: 0.9"/>
     <use xlink:href="#m8b725fe95b" x="556.927362" y="212.123709" style="fill: #1f77b4; fill-opacity: 0.9; stroke: #000000; stroke-opacity: 0.9"/>
     <use xlink:href="#m8b725fe95b" x="677.779263" y="161.09624" style="fill: #1f77b4; fill-opacity: 0.9; stroke: #000000; stroke-opacity: 0.9"/>
     <use xlink:href="#m8b725fe95b" x="798.631165" y="102.401432" style="fill: #1f77b4; fill-opacity: 0.9; stroke: #000000; stroke-opacity: 0.9"/>
    </g>
   </g>
   <g id="PathCollection_2">
    <defs>
     <path id="mf4de402026" d="M 0 4.472136 
C 1.186024 4.472136 2.323632 4.000923 3.162278 3.162278 
C 4.000923 2.323632 4.472136 1.186024 4.472136 0 
C 4.472136 -1.186024 4.000923 -2.323632 3.162278 -3.162278 
C 2.323632 -4.000923 1.186024 -4.472136 0 -4.472136 
C -1.186024 -4.472136 -2.323632 -4.000923 -3.162278 -3.162278 
C -4.000923 -2.323632 -4.472136 -1.186024 -4.472136 0 
C -4.472136 1.186024 -4.000923 2.323632 -3.162278 3.162278 
C -2.323632 4.000923 -1.186024 4.472136 0 4.472136 
z
" style="stroke: #000000; stroke-opacity: 0.9"/>
    </defs>
    <g clip-path="url(#p9c8d99127c)">
     <use xlink:href="#mf4de402026" x="73.519755" y="474.664003" style="fill: #ff7f0e; fill-opacity: 0.9; stroke: #000000; stroke-opacity: 0.9"/>
     <use xlink:href="#mf4de402026" x="194.371657" y="457.610781" style="fill: #ff7f0e; fill-opacity: 0.9; stroke: #000000; stroke-opacity: 0.9"/>
     <use xlink:href="#mf4de402026" x="315.223559" y="442.143906" style="fill: #ff7f0e; fill-opacity: 0.9; stroke: #000000; stroke-opacity: 0.9"/>
     <use xlink:href="#mf4de402026" x="436.07546" y="413.854066" style="fill: #ff7f0e; fill-opacity: 0.9; stroke: #000000; stroke-opacity: 0.9"/>
     <use xlink:href="#mf4de402026" x="556.927362" y="385.43203" style="fill: #ff7f0e; fill-opacity: 0.9; stroke: #000000; stroke-opacity: 0.9"/>
     <use xlink:href="#mf4de402026" x="677.779263" y="353.572911" style="fill: #ff7f0e; fill-opacity: 0.9; stroke: #000000; stroke-opacity: 0.9"/>
     <use xlink:href="#mf4de402026" x="798.631165" y="295.671275" style="fill: #ff7f0e; fill-opacity: 0.9; stroke: #000000; stroke-opacity: 0.9"/>
    </g>
   </g>
   <g id="PathCollection_3">
    <defs>
     <path id="m3582d7753f" d="M 0 4.472136 
C 1.186024 4.472136 2.323632 4.000923 3.162278 3.162278 
C 4.000923 2.323632 4.472136 1.186024 4.472136 0 
C 4.472136 -1.186024 4.000923 -2.323632 3.162278 -3.162278 
C 2.323632 -4.000923 1.186024 -4.472136 0 -4.472136 
C -1.186024 -4.472136 -2.323632 -4.000923 -3.162278 -3.162278 
C -4.000923 -2.323632 -4.472136 -1.186024 -4.472136 0 
C -4.472136 1.186024 -4.000923 2.323632 -3.162278 3.162278 
C -2.323632 4.000923 -1.186024 4.472136 0 4.472136 
z
" style="stroke: #000000; stroke-opacity: 0.9"/>
    </defs>
    <g clip-path="url(#p9c8d99127c)">
     <use xlink:href="#m3582d7753f" x="73.519755" y="425.758277" style="fill: #2ca02c; fill-opacity: 0.9; stroke: #000000; stroke-opacity: 0.9"/>
     <use xlink:href="#m3582d7753f" x="194.371657" y="412.783846" style="fill: #2ca02c; fill-opacity: 0.9; stroke: #000000; stroke-opacity: 0.9"/>
     <use xlink:href="#m3582d7753f" x="315.223559" y="398.230125" style="fill: #2ca02c; fill-opacity: 0.9; stroke: #000000; stroke-opacity: 0.9"/>
     <use xlink:href="#m3582d7753f" x="363.564319" y="391.416074" style="fill: #2ca02c; fill-opacity: 0.9; stroke: #000000; stroke-opacity: 0.9"/>
     <use xlink:href="#m3582d7753f" x="375.649509" y="386.495583" style="fill: #2ca02c; fill-opacity: 0.9; stroke: #000000; stroke-opacity: 0.9"/>
     <use xlink:href="#m3582d7753f" x="399.81989" y="381.908481" style="fill: #2ca02c; fill-opacity: 0.9; stroke: #000000; stroke-opacity: 0.9"/>
     <use xlink:href="#m3582d7753f" x="436.07546" y="374.85952" style="fill: #2ca02c; fill-opacity: 0.9; stroke: #000000; stroke-opacity: 0.9"/>
     <use xlink:href="#m3582d7753f" x="472.331031" y="370.659552" style="fill: #2ca02c; fill-opacity: 0.9; stroke: #000000; stroke-opacity: 0.9"/>
     <use xlink:href="#m3582d7753f" x="520.671791" y="358.538458" style="fill: #2ca02c; fill-opacity: 0.9; stroke: #000000; stroke-opacity: 0.9"/>
     <use xlink:href="#m3582d7753f" x="556.927362" y="347.584268" style="fill: #2ca02c; fill-opacity: 0.9; stroke: #000000; stroke-opacity: 0.9"/>
     <use xlink:href="#m3582d7753f" x="593.182932" y="339.585876" style="fill: #2ca02c; fill-opacity: 0.9; stroke: #000000; stroke-opacity: 0.9"/>
     <use xlink:href="#m3582d7753f" x="641.523693" y="328.127532" style="fill: #2ca02c; fill-opacity: 0.9; stroke: #000000; stroke-opacity: 0.9"/>
     <use xlink:href="#m3582d7753f" x="677.779263" y="278.276784" style="fill: #2ca02c; fill-opacity: 0.9; stroke: #000000; stroke-opacity: 0.9"/>
     <use xlink:href="#m3582d7753f" x="738.205214" y="216.919056" style="fill: #2ca02c; fill-opacity: 0.9; stroke: #000000; stroke-opacity: 0.9"/>
     <use xlink:href="#m3582d7753f" x="798.631165" y="133.836404" style="fill: #2ca02c; fill-opacity: 0.9; stroke: #000000; stroke-opacity: 0.9"/>
    </g>
   </g>
   <g id="PathCollection_4">
    <defs>
     <path id="m8ba76a4b5e" d="M 0 4.472136 
C 1.186024 4.472136 2.323632 4.000923 3.162278 3.162278 
C 4.000923 2.323632 4.472136 1.186024 4.472136 0 
C 4.472136 -1.186024 4.000923 -2.323632 3.162278 -3.162278 
C 2.323632 -4.000923 1.186024 -4.472136 0 -4.472136 
C -1.186024 -4.472136 -2.323632 -4.000923 -3.162278 -3.162278 
C -4.000923 -2.323632 -4.472136 -1.186024 -4.472136 0 
C -4.472136 1.186024 -4.000923 2.323632 -3.162278 3.162278 
C -2.323632 4.000923 -1.186024 4.472136 0 4.472136 
z
" style="stroke: #000000; stroke-opacity: 0.9"/>
    </defs>
    <g clip-path="url(#p9c8d99127c)">
     <use xlink:href="#m8ba76a4b5e" x="73.519755" y="475.457947" style="fill: #d62728; fill-opacity: 0.9; stroke: #000000; stroke-opacity: 0.9"/>
     <use xlink:href="#m8ba76a4b5e" x="194.371657" y="460.166635" style="fill: #d62728; fill-opacity: 0.9; stroke: #000000; stroke-opacity: 0.9"/>
     <use xlink:href="#m8ba76a4b5e" x="315.223559" y="424.089725" style="fill: #d62728; fill-opacity: 0.9; stroke: #000000; stroke-opacity: 0.9"/>
     <use xlink:href="#m8ba76a4b5e" x="363.564319" y="408.61526" style="fill: #d62728; fill-opacity: 0.9; stroke: #000000; stroke-opacity: 0.9"/>
     <use xlink:href="#m8ba76a4b5e" x="399.81989" y="390.322952" style="fill: #d62728; fill-opacity: 0.9; stroke: #000000; stroke-opacity: 0.9"/>
     <use xlink:href="#m8ba76a4b5e" x="436.07546" y="371.787206" style="fill: #d62728; fill-opacity: 0.9; stroke: #000000; stroke-opacity: 0.9"/>
     <use xlink:href="#m8ba76a4b5e" x="472.331031" y="346.076801" style="fill: #d62728; fill-opacity: 0.9; stroke: #000000; stroke-opacity: 0.9"/>
     <use xlink:href="#m8ba76a4b5e" x="520.671791" y="321.250766" style="fill: #d62728; fill-opacity: 0.9; stroke: #000000; stroke-opacity: 0.9"/>
     <use xlink:href="#m8ba76a4b5e" x="556.927362" y="286.07418" style="fill: #d62728; fill-opacity: 0.9; stroke: #000000; stroke-opacity: 0.9"/>
     <use xlink:href="#m8ba76a4b5e" x="593.182932" y="223.637757" style="fill: #d62728; fill-opacity: 0.9; stroke: #000000; stroke-opacity: 0.9"/>
     <use xlink:href="#m8ba76a4b5e" x="641.523693" y="201.410551" style="fill: #d62728; fill-opacity: 0.9; stroke: #000000; stroke-opacity: 0.9"/>
     <use xlink:href="#m8ba76a4b5e" x="677.779263" y="196.049096" style="fill: #d62728; fill-opacity: 0.9; stroke: #000000; stroke-opacity: 0.9"/>
     <use xlink:href="#m8ba76a4b5e" x="798.631165" y="91.89149" style="fill: #d62728; fill-opacity: 0.9; stroke: #000000; stroke-opacity: 0.9"/>
     <use xlink:href="#m8ba76a4b5e" x="919.483067" y="62.968206" style="fill: #d62728; fill-opacity: 0.9; stroke: #000000; stroke-opacity: 0.9"/>
    </g>
   </g>
   <g id="PathCollection_5">
    <defs>
     <path id="m12e441f542" d="M 0 4.472136 
C 1.186024 4.472136 2.323632 4.000923 3.162278 3.162278 
C 4.000923 2.323632 4.472136 1.186024 4.472136 0 
C 4.472136 -1.186024 4.000923 -2.323632 3.162278 -3.162278 
C 2.323632 -4.000923 1.186024 -4.472136 0 -4.472136 
C -1.186024 -4.472136 -2.323632 -4.000923 -3.162278 -3.162278 
C -4.000923 -2.323632 -4.472136 -1.186024 -4.472136 0 
C -4.472136 1.186024 -4.000923 2.323632 -3.162278 3.162278 
C -2.323632 4.000923 -1.186024 4.472136 0 4.472136 
z
" style="stroke: #000000; stroke-opacity: 0.9"/>
    </defs>
    <g clip-path="url(#p9c8d99127c)">
     <use xlink:href="#m12e441f542" x="73.519755" y="484.630535" style="fill: #9467bd; fill-opacity: 0.9; stroke: #000000; stroke-opacity: 0.9"/>
     <use xlink:href="#m12e441f542" x="194.371657" y="475.249045" style="fill: #9467bd; fill-opacity: 0.9; stroke: #000000; stroke-opacity: 0.9"/>
     <use xlink:href="#m12e441f542" x="315.223559" y="459.833625" style="fill: #9467bd; fill-opacity: 0.9; stroke: #000000; stroke-opacity: 0.9"/>
     <use xlink:href="#m12e441f542" x="436.07546" y="432.918107" style="fill: #9467bd; fill-opacity: 0.9; stroke: #000000; stroke-opacity: 0.9"/>
     <use xlink:href="#m12e441f542" x="556.927362" y="400.64755" style="fill: #9467bd; fill-opacity: 0.9; stroke: #000000; stroke-opacity: 0.9"/>
     <use xlink:href="#m12e441f542" x="677.779263" y="367.197435" style="fill: #9467bd; fill-opacity: 0.9; stroke: #000000; stroke-opacity: 0.9"/>
     <use xlink:href="#m12e441f542" x="798.631165" y="324.736611" style="fill: #9467bd; fill-opacity: 0.9; stroke: #000000; stroke-opacity: 0.9"/>
     <use xlink:href="#m12e441f542" x="919.483067" y="257.215661" style="fill: #9467bd; fill-opacity: 0.9; stroke: #000000; stroke-opacity: 0.9"/>
    </g>
   </g>
   <g id="PathCollection_6">
    <defs>
     <path id="me0d9d0f486" d="M 0 4.472136 
C 1.186024 4.472136 2.323632 4.000923 3.162278 3.162278 
C 4.000923 2.323632 4.472136 1.186024 4.472136 0 
C 4.472136 -1.186024 4.000923 -2.323632 3.162278 -3.162278 
C 2.323632 -4.000923 1.186024 -4.472136 0 -4.472136 
C -1.186024 -4.472136 -2.323632 -4.000923 -3.162278 -3.162278 
C -4.000923 -2.323632 -4.472136 -1.186024 -4.472136 0 
C -4.472136 1.186024 -4.000923 2.323632 -3.162278 3.162278 
C -2.323632 4.000923 -1.186024 4.472136 0 4.472136 
z
" style="stroke: #000000; stroke-opacity: 0.9"/>
    </defs>
    <g clip-path="url(#p9c8d99127c)">
     <use xlink:href="#me0d9d0f486" x="73.519755" y="486.933984" style="fill: #8c564b; fill-opacity: 0.9; stroke: #000000; stroke-opacity: 0.9"/>
     <use xlink:href="#me0d9d0f486" x="194.371657" y="479.88169" style="fill: #8c564b; fill-opacity: 0.9; stroke: #000000; stroke-opacity: 0.9"/>
     <use xlink:href="#me0d9d0f486" x="315.223559" y="471.056463" style="fill: #8c564b; fill-opacity: 0.9; stroke: #000000; stroke-opacity: 0.9"/>
     <use xlink:href="#me0d9d0f486" x="436.07546" y="459.956207" style="fill: #8c564b; fill-opacity: 0.9; stroke: #000000; stroke-opacity: 0.9"/>
     <use xlink:href="#me0d9d0f486" x="556.927362" y="444.898779" style="fill: #8c564b; fill-opacity: 0.9; stroke: #000000; stroke-opacity: 0.9"/>
     <use xlink:href="#me0d9d0f486" x="677.779263" y="423.809749" style="fill: #8c564b; fill-opacity: 0.9; stroke: #000000; stroke-opacity: 0.9"/>
     <use xlink:href="#me0d9d0f486" x="798.631165" y="397.093571" style="fill: #8c564b; fill-opacity: 0.9; stroke: #000000; stroke-opacity: 0.9"/>
     <use xlink:href="#me0d9d0f486" x="919.483067" y="361.232665" style="fill: #8c564b; fill-opacity: 0.9; stroke: #000000; stroke-opacity: 0.9"/>
    </g>
   </g>
   <g id="PathCollection_7">
    <defs>
     <path id="m102b16554f" d="M 0 -6.708204 
L -1.506086 -2.072949 
L -6.379881 -2.072949 
L -2.436898 0.791796 
L -3.942983 5.427051 
L -0 2.562306 
L 3.942983 5.427051 
L 2.436898 0.791796 
L 6.379881 -2.072949 
L 1.506086 -2.072949 
z
" style="stroke: #000000"/>
    </defs>
    <g clip-path="url(#p9c8d99127c)">
     <use xlink:href="#m102b16554f" x="282.426499" y="386.463761" style="fill: #1f77b4; stroke: #000000"/>
    </g>
   </g>
   <g id="PathCollection_8">
    <defs>
     <path id="mde191d8a79" d="M 0 -6.708204 
L -1.506086 -2.072949 
L -6.379881 -2.072949 
L -2.436898 0.791796 
L -3.942983 5.427051 
L -0 2.562306 
L 3.942983 5.427051 
L 2.436898 0.791796 
L 6.379881 -2.072949 
L 1.506086 -2.072949 
z
" style="stroke: #000000"/>
    </defs>
    <g clip-path="url(#p9c8d99127c)">
     <use xlink:href="#mde191d8a79" x="351.479129" y="443.866689" style="fill: #ff7f0e; stroke: #000000"/>
    </g>
   </g>
   <g id="PathCollection_9">
    <defs>
     <path id="m162ee74986" d="M 0 -6.708204 
L -1.506086 -2.072949 
L -6.379881 -2.072949 
L -2.436898 0.791796 
L -3.942983 5.427051 
L -0 2.562306 
L 3.942983 5.427051 
L 2.436898 0.791796 
L 6.379881 -2.072949 
L 1.506086 -2.072949 
z
" style="stroke: #000000"/>
    </defs>
    <g clip-path="url(#p9c8d99127c)">
     <use xlink:href="#m162ee74986" x="436.07546" y="382.02284" style="fill: #2ca02c; stroke: #000000"/>
    </g>
   </g>
   <g id="PathCollection_10">
    <defs>
     <path id="m11ef616e24" d="M 0 -6.708204 
L -1.506086 -2.072949 
L -6.379881 -2.072949 
L -2.436898 0.791796 
L -3.942983 5.427051 
L -0 2.562306 
L 3.942983 5.427051 
L 2.436898 0.791796 
L 6.379881 -2.072949 
L 1.506086 -2.072949 
z
" style="stroke: #000000"/>
    </defs>
    <g clip-path="url(#p9c8d99127c)">
     <use xlink:href="#m11ef616e24" x="318.388649" y="439.290528" style="fill: #d62728; stroke: #000000"/>
    </g>
   </g>
   <g id="PathCollection_11">
    <defs>
     <path id="me2520703e1" d="M 0 -6.708204 
L -1.506086 -2.072949 
L -6.379881 -2.072949 
L -2.436898 0.791796 
L -3.942983 5.427051 
L -0 2.562306 
L 3.942983 5.427051 
L 2.436898 0.791796 
L 6.379881 -2.072949 
L 1.506086 -2.072949 
z
" style="stroke: #000000"/>
    </defs>
    <g clip-path="url(#p9c8d99127c)">
     <use xlink:href="#me2520703e1" x="410.707389" y="449.637537" style="fill: #9467bd; stroke: #000000"/>
    </g>
   </g>
   <g id="PathCollection_12">
    <defs>
     <path id="m60e3932133" d="M 0 -6.708204 
L -1.506086 -2.072949 
L -6.379881 -2.072949 
L -2.436898 0.791796 
L -3.942983 5.427051 
L -0 2.562306 
L 3.942983 5.427051 
L 2.436898 0.791796 
L 6.379881 -2.072949 
L 1.506086 -2.072949 
z
" style="stroke: #000000"/>
    </defs>
    <g clip-path="url(#p9c8d99127c)">
     <use xlink:href="#m60e3932133" x="491.562982" y="459.724641" style="fill: #8c564b; stroke: #000000"/>
    </g>
   </g>
  </g>
 </g>
 <defs>
  <clipPath id="p9c8d99127c">
   <rect x="49.349375" y="25.3575" width="894.304072" height="502.12"/>
  </clipPath>
 </defs>
</svg>
