<?xml version="1.0" encoding="utf-8" standalone="no"?>
<!DOCTYPE svg PUBLIC "-//W3C//DTD SVG 1.1//EN"
  "http://www.w3.org/Graphics/SVG/1.1/DTD/svg11.dtd">
<svg xmlns:xlink="http://www.w3.org/1999/xlink" width="720pt" height="720pt" viewBox="0 0 720 720" xmlns="http://www.w3.org/2000/svg" version="1.1">
 <metadata>
  <rdf:RDF xmlns:dc="http://purl.org/dc/elements/1.1/" xmlns:cc="http://creativecommons.org/ns#" xmlns:rdf="http://www.w3.org/1999/02/22-rdf-syntax-ns#">
   <cc:Work>
    <dc:type rdf:resource="http://purl.org/dc/dcmitype/StillImage"/>
    <dc:date>2025-03-24T08:04:18.885510</dc:date>
    <dc:format>image/svg+xml</dc:format>
    <dc:creator>
     <cc:Agent>
      <dc:title>Matplotlib v3.10.0, https://matplotlib.org/</dc:title>
     </cc:Agent>
    </dc:creator>
   </cc:Work>
  </rdf:RDF>
 </metadata>
 <defs>
  <style type="text/css">*{stroke-linejoin: round; stroke-linecap: butt}</style>
 </defs>
 <g id="figure_1">
  <g id="patch_1">
   <path d="M 0 720 
L 720 720 
L 720 0 
L 0 0 
z
" style="fill: #ffffff"/>
  </g>
  <g id="axes_1">
   <g id="patch_2">
    <path d="M 47.45 692.12 
L 543.73 692.12 
L 543.73 27.6 
L 47.45 27.6 
z
" style="fill: #ffffff"/>
   </g>
   <g id="patch_3">
    <path d="M 70.008182 692.12 
L 81.128412 692.12 
L 81.128412 518.789167 
L 70.008182 518.789167 
z
" clip-path="url(#pbdc7cc5eef)" style="fill: #808080"/>
   </g>
   <g id="patch_4">
    <path d="M 228.868617 692.12 
L 239.988848 692.12 
L 239.988848 499.782052 
L 228.868617 499.782052 
z
" clip-path="url(#pbdc7cc5eef)" style="fill: #808080"/>
   </g>
   <g id="patch_5">
    <path d="M 387.729052 692.12 
L 398.849283 692.12 
L 398.849283 59.24381 
L 387.729052 59.24381 
z
" clip-path="url(#pbdc7cc5eef)" style="fill: #808080"/>
   </g>
   <g id="patch_6">
    <path d="M 81.128412 692.12 
L 92.248643 692.12 
L 92.248643 615.600478 
L 81.128412 615.600478 
z
" clip-path="url(#pbdc7cc5eef)" style="fill: #f08080"/>
   </g>
   <g id="patch_7">
    <path d="M 239.988848 692.12 
L 251.109078 692.12 
L 251.109078 596.0383 
L 239.988848 596.0383 
z
" clip-path="url(#pbdc7cc5eef)" style="fill: #f08080"/>
   </g>
   <g id="patch_8">
    <path d="M 398.849283 692.12 
L 409.969513 692.12 
L 409.969513 548.710188 
L 398.849283 548.710188 
z
" clip-path="url(#pbdc7cc5eef)" style="fill: #f08080"/>
   </g>
   <g id="patch_9">
    <path d="M 92.248643 692.12 
L 103.368873 692.12 
L 103.368873 618.72256 
L 92.248643 618.72256 
z
" clip-path="url(#pbdc7cc5eef)" style="fill: #ff0000"/>
   </g>
   <g id="patch_10">
    <path d="M 251.109078 692.12 
L 262.229309 692.12 
L 262.229309 602.811927 
L 251.109078 602.811927 
z
" clip-path="url(#pbdc7cc5eef)" style="fill: #ff0000"/>
   </g>
   <g id="patch_11">
    <path d="M 409.969513 692.12 
L 421.089744 692.12 
L 421.089744 569.454637 
L 409.969513 569.454637 
z
" clip-path="url(#pbdc7cc5eef)" style="fill: #ff0000"/>
   </g>
   <g id="patch_12">
    <path d="M 103.368873 692.12 
L 114.489104 692.12 
L 114.489104 603.683503 
L 103.368873 603.683503 
z
" clip-path="url(#pbdc7cc5eef)" style="fill: #add8e6"/>
   </g>
   <g id="patch_13">
    <path d="M 262.229309 692.12 
L 273.349539 692.12 
L 273.349539 603.683503 
L 262.229309 603.683503 
z
" clip-path="url(#pbdc7cc5eef)" style="fill: #add8e6"/>
   </g>
   <g id="patch_14">
    <path d="M 421.089744 692.12 
L 432.209974 692.12 
L 432.209974 579.216526 
L 421.089744 579.216526 
z
" clip-path="url(#pbdc7cc5eef)" style="fill: #add8e6"/>
   </g>
   <g id="patch_15">
    <path d="M 114.489104 692.12 
L 125.609334 692.12 
L 125.609334 621.274452 
L 114.489104 621.274452 
z
" clip-path="url(#pbdc7cc5eef)" style="fill: #0000ff"/>
   </g>
   <g id="patch_16">
    <path d="M 273.349539 692.12 
L 284.46977 692.12 
L 284.46977 612.643634 
L 273.349539 612.643634 
z
" clip-path="url(#pbdc7cc5eef)" style="fill: #0000ff"/>
   </g>
   <g id="patch_17">
    <path d="M 432.209974 692.12 
L 443.330205 692.12 
L 443.330205 597.747707 
L 432.209974 597.747707 
z
" clip-path="url(#pbdc7cc5eef)" style="fill: #0000ff"/>
   </g>
   <g id="patch_18">
    <path d="M 125.609334 692.12 
L 136.729565 692.12 
L 136.729565 613.021822 
L 125.609334 613.021822 
z
" clip-path="url(#pbdc7cc5eef)" style="fill: #008000"/>
   </g>
   <g id="patch_19">
    <path d="M 284.46977 692.12 
L 295.59 692.12 
L 295.59 594.883956 
L 284.46977 594.883956 
z
" clip-path="url(#pbdc7cc5eef)" style="fill: #008000"/>
   </g>
   <g id="patch_20">
    <path d="M 443.330205 692.12 
L 454.450435 692.12 
L 454.450435 562.34937 
L 443.330205 562.34937 
z
" clip-path="url(#pbdc7cc5eef)" style="fill: #008000"/>
   </g>
   <g id="patch_21">
    <path d="M 136.729565 692.12 
L 147.849795 692.12 
L 147.849795 614.273913 
L 136.729565 614.273913 
z
" clip-path="url(#pbdc7cc5eef)" style="fill: #800080"/>
   </g>
   <g id="patch_22">
    <path d="M 295.59 692.12 
L 306.71023 692.12 
L 306.71023 579.718061 
L 295.59 579.718061 
z
" clip-path="url(#pbdc7cc5eef)" style="fill: #800080"/>
   </g>
   <g id="patch_23">
    <path d="M 454.450435 692.12 
L 465.570666 692.12 
L 465.570666 560.99255 
L 454.450435 560.99255 
z
" clip-path="url(#pbdc7cc5eef)" style="fill: #800080"/>
   </g>
   <g id="patch_24">
    <path d="M 147.849795 692.12 
L 158.970026 692.12 
L 158.970026 611.831404 
L 147.849795 611.831404 
z
" clip-path="url(#pbdc7cc5eef)" style="fill: #ee82ee"/>
   </g>
   <g id="patch_25">
    <path d="M 306.71023 692.12 
L 317.830461 692.12 
L 317.830461 599.761991 
L 306.71023 599.761991 
z
" clip-path="url(#pbdc7cc5eef)" style="fill: #ee82ee"/>
   </g>
   <g id="patch_26">
    <path d="M 465.570666 692.12 
L 476.690896 692.12 
L 476.690896 579.718061 
L 465.570666 579.718061 
z
" clip-path="url(#pbdc7cc5eef)" style="fill: #ee82ee"/>
   </g>
   <g id="patch_27">
    <path d="M 158.970026 692.12 
L 170.090256 692.12 
L 170.090256 623.171207 
L 158.970026 623.171207 
z
" clip-path="url(#pbdc7cc5eef)" style="fill: #ffa500"/>
   </g>
   <g id="patch_28">
    <path d="M 317.830461 692.12 
L 328.950691 692.12 
L 328.950691 579.718061 
L 317.830461 579.718061 
z
" clip-path="url(#pbdc7cc5eef)" style="fill: #ffa500"/>
   </g>
   <g id="patch_29">
    <path d="M 476.690896 692.12 
L 487.811127 692.12 
L 487.811127 560.99255 
L 476.690896 560.99255 
z
" clip-path="url(#pbdc7cc5eef)" style="fill: #ffa500"/>
   </g>
   <g id="patch_30">
    <path d="M 170.090256 692.12 
L 181.210487 692.12 
L 181.210487 612.151409 
L 170.090256 612.151409 
z
" clip-path="url(#pbdc7cc5eef)" style="fill: #a52a2a"/>
   </g>
   <g id="patch_31">
    <path d="M 328.950691 692.12 
L 340.070922 692.12 
L 340.070922 548.710188 
L 328.950691 548.710188 
z
" clip-path="url(#pbdc7cc5eef)" style="fill: #a52a2a"/>
   </g>
   <g id="patch_32">
    <path d="M 487.811127 692.12 
L 498.931357 692.12 
L 498.931357 548.710188 
L 487.811127 548.710188 
z
" clip-path="url(#pbdc7cc5eef)" style="fill: #a52a2a"/>
   </g>
   <g id="patch_33">
    <path d="M 181.210487 692.12 
L 192.330717 692.12 
L 192.330717 609.357477 
L 181.210487 609.357477 
z
" clip-path="url(#pbdc7cc5eef)" style="fill: #00bfff"/>
   </g>
   <g id="patch_34">
    <path d="M 340.070922 692.12 
L 351.191152 692.12 
L 351.191152 569.636167 
L 340.070922 569.636167 
z
" clip-path="url(#pbdc7cc5eef)" style="fill: #00bfff"/>
   </g>
   <g id="patch_35">
    <path d="M 498.931357 692.12 
L 510.051588 692.12 
L 510.051588 569.636167 
L 498.931357 569.636167 
z
" clip-path="url(#pbdc7cc5eef)" style="fill: #00bfff"/>
   </g>
   <g id="patch_36">
    <path d="M 192.330717 692.12 
L 203.450948 692.12 
L 203.450948 613.58503 
L 192.330717 613.58503 
z
" clip-path="url(#pbdc7cc5eef)" style="fill: #1e90ff"/>
   </g>
   <g id="patch_37">
    <path d="M 351.191152 692.12 
L 362.311383 692.12 
L 362.311383 559.21216 
L 351.191152 559.21216 
z
" clip-path="url(#pbdc7cc5eef)" style="fill: #1e90ff"/>
   </g>
   <g id="patch_38">
    <path d="M 510.051588 692.12 
L 521.171818 692.12 
L 521.171818 559.21216 
L 510.051588 559.21216 
z
" clip-path="url(#pbdc7cc5eef)" style="fill: #1e90ff"/>
   </g>
   <g id="matplotlib.axis_1">
    <g id="xtick_1">
     <g id="line2d_1">
      <path d="M 75.568297 692.12 
L 75.568297 27.6 
" clip-path="url(#pbdc7cc5eef)" style="fill: none; stroke-dasharray: 1.85,0.8; stroke-dashoffset: 0; stroke: #b0b0b0; stroke-width: 0.5"/>
     </g>
     <g id="line2d_2">
      <defs>
       <path id="m2cea1b3d1c" d="M 0 0 
L 0 3.5 
" style="stroke: #000000; stroke-width: 0.8"/>
      </defs>
      <g>
       <use xlink:href="#m2cea1b3d1c" x="75.568297" y="692.12" style="stroke: #000000; stroke-width: 0.8"/>
      </g>
     </g>
     <g id="text_1">
      <!-- 50% -->
      <g transform="translate(64.455016 706.718438) scale(0.1 -0.1)">
       <defs>
        <path id="DejaVuSans-35" d="M 691 4666 
L 3169 4666 
L 3169 4134 
L 1269 4134 
L 1269 2991 
Q 1406 3038 1543 3061 
Q 1681 3084 1819 3084 
Q 2600 3084 3056 2656 
Q 3513 2228 3513 1497 
Q 3513 744 3044 326 
Q 2575 -91 1722 -91 
Q 1428 -91 1123 -41 
Q 819 9 494 109 
L 494 744 
Q 775 591 1075 516 
Q 1375 441 1709 441 
Q 2250 441 2565 725 
Q 2881 1009 2881 1497 
Q 2881 1984 2565 2268 
Q 2250 2553 1709 2553 
Q 1456 2553 1204 2497 
Q 953 2441 691 2322 
L 691 4666 
z
" transform="scale(0.015625)"/>
        <path id="DejaVuSans-30" d="M 2034 4250 
Q 1547 4250 1301 3770 
Q 1056 3291 1056 2328 
Q 1056 1369 1301 889 
Q 1547 409 2034 409 
Q 2525 409 2770 889 
Q 3016 1369 3016 2328 
Q 3016 3291 2770 3770 
Q 2525 4250 2034 4250 
z
M 2034 4750 
Q 2819 4750 3233 4129 
Q 3647 3509 3647 2328 
Q 3647 1150 3233 529 
Q 2819 -91 2034 -91 
Q 1250 -91 836 529 
Q 422 1150 422 2328 
Q 422 3509 836 4129 
Q 1250 4750 2034 4750 
z
" transform="scale(0.015625)"/>
        <path id="DejaVuSans-25" d="M 4653 2053 
Q 4381 2053 4226 1822 
Q 4072 1591 4072 1178 
Q 4072 772 4226 539 
Q 4381 306 4653 306 
Q 4919 306 5073 539 
Q 5228 772 5228 1178 
Q 5228 1588 5073 1820 
Q 4919 2053 4653 2053 
z
M 4653 2450 
Q 5147 2450 5437 2106 
Q 5728 1763 5728 1178 
Q 5728 594 5436 251 
Q 5144 -91 4653 -91 
Q 4153 -91 3862 251 
Q 3572 594 3572 1178 
Q 3572 1766 3864 2108 
Q 4156 2450 4653 2450 
z
M 1428 4353 
Q 1159 4353 1004 4120 
Q 850 3888 850 3481 
Q 850 3069 1003 2837 
Q 1156 2606 1428 2606 
Q 1700 2606 1854 2837 
Q 2009 3069 2009 3481 
Q 2009 3884 1853 4118 
Q 1697 4353 1428 4353 
z
M 4250 4750 
L 4750 4750 
L 1831 -91 
L 1331 -91 
L 4250 4750 
z
M 1428 4750 
Q 1922 4750 2215 4408 
Q 2509 4066 2509 3481 
Q 2509 2891 2217 2550 
Q 1925 2209 1428 2209 
Q 931 2209 642 2551 
Q 353 2894 353 3481 
Q 353 4063 643 4406 
Q 934 4750 1428 4750 
z
" transform="scale(0.015625)"/>
       </defs>
       <use xlink:href="#DejaVuSans-35"/>
       <use xlink:href="#DejaVuSans-30" transform="translate(63.623047 0)"/>
       <use xlink:href="#DejaVuSans-25" transform="translate(127.246094 0)"/>
      </g>
     </g>
    </g>
    <g id="xtick_2">
     <g id="line2d_3">
      <path d="M 234.428732 692.12 
L 234.428732 27.6 
" clip-path="url(#pbdc7cc5eef)" style="fill: none; stroke-dasharray: 1.85,0.8; stroke-dashoffset: 0; stroke: #b0b0b0; stroke-width: 0.5"/>
     </g>
     <g id="line2d_4">
      <g>
       <use xlink:href="#m2cea1b3d1c" x="234.428732" y="692.12" style="stroke: #000000; stroke-width: 0.8"/>
      </g>
     </g>
     <g id="text_2">
      <!-- 4:8 -->
      <g transform="translate(226.381857 706.718438) scale(0.1 -0.1)">
       <defs>
        <path id="DejaVuSans-34" d="M 2419 4116 
L 825 1625 
L 2419 1625 
L 2419 4116 
z
M 2253 4666 
L 3047 4666 
L 3047 1625 
L 3713 1625 
L 3713 1100 
L 3047 1100 
L 3047 0 
L 2419 0 
L 2419 1100 
L 313 1100 
L 313 1709 
L 2253 4666 
z
" transform="scale(0.015625)"/>
        <path id="DejaVuSans-3a" d="M 750 794 
L 1409 794 
L 1409 0 
L 750 0 
L 750 794 
z
M 750 3309 
L 1409 3309 
L 1409 2516 
L 750 2516 
L 750 3309 
z
" transform="scale(0.015625)"/>
        <path id="DejaVuSans-38" d="M 2034 2216 
Q 1584 2216 1326 1975 
Q 1069 1734 1069 1313 
Q 1069 891 1326 650 
Q 1584 409 2034 409 
Q 2484 409 2743 651 
Q 3003 894 3003 1313 
Q 3003 1734 2745 1975 
Q 2488 2216 2034 2216 
z
M 1403 2484 
Q 997 2584 770 2862 
Q 544 3141 544 3541 
Q 544 4100 942 4425 
Q 1341 4750 2034 4750 
Q 2731 4750 3128 4425 
Q 3525 4100 3525 3541 
Q 3525 3141 3298 2862 
Q 3072 2584 2669 2484 
Q 3125 2378 3379 2068 
Q 3634 1759 3634 1313 
Q 3634 634 3220 271 
Q 2806 -91 2034 -91 
Q 1263 -91 848 271 
Q 434 634 434 1313 
Q 434 1759 690 2068 
Q 947 2378 1403 2484 
z
M 1172 3481 
Q 1172 3119 1398 2916 
Q 1625 2713 2034 2713 
Q 2441 2713 2670 2916 
Q 2900 3119 2900 3481 
Q 2900 3844 2670 4047 
Q 2441 4250 2034 4250 
Q 1625 4250 1398 4047 
Q 1172 3844 1172 3481 
z
" transform="scale(0.015625)"/>
       </defs>
       <use xlink:href="#DejaVuSans-34"/>
       <use xlink:href="#DejaVuSans-3a" transform="translate(63.623047 0)"/>
       <use xlink:href="#DejaVuSans-38" transform="translate(97.314453 0)"/>
      </g>
     </g>
    </g>
    <g id="xtick_3">
     <g id="line2d_5">
      <path d="M 393.289168 692.12 
L 393.289168 27.6 
" clip-path="url(#pbdc7cc5eef)" style="fill: none; stroke-dasharray: 1.85,0.8; stroke-dashoffset: 0; stroke: #b0b0b0; stroke-width: 0.5"/>
     </g>
     <g id="line2d_6">
      <g>
       <use xlink:href="#m2cea1b3d1c" x="393.289168" y="692.12" style="stroke: #000000; stroke-width: 0.8"/>
      </g>
     </g>
     <g id="text_3">
      <!-- 2:4 -->
      <g transform="translate(385.242293 706.718438) scale(0.1 -0.1)">
       <defs>
        <path id="DejaVuSans-32" d="M 1228 531 
L 3431 531 
L 3431 0 
L 469 0 
L 469 531 
Q 828 903 1448 1529 
Q 2069 2156 2228 2338 
Q 2531 2678 2651 2914 
Q 2772 3150 2772 3378 
Q 2772 3750 2511 3984 
Q 2250 4219 1831 4219 
Q 1534 4219 1204 4116 
Q 875 4013 500 3803 
L 500 4441 
Q 881 4594 1212 4672 
Q 1544 4750 1819 4750 
Q 2544 4750 2975 4387 
Q 3406 4025 3406 3419 
Q 3406 3131 3298 2873 
Q 3191 2616 2906 2266 
Q 2828 2175 2409 1742 
Q 1991 1309 1228 531 
z
" transform="scale(0.015625)"/>
       </defs>
       <use xlink:href="#DejaVuSans-32"/>
       <use xlink:href="#DejaVuSans-3a" transform="translate(63.623047 0)"/>
       <use xlink:href="#DejaVuSans-34" transform="translate(97.314453 0)"/>
      </g>
     </g>
    </g>
   </g>
   <g id="matplotlib.axis_2">
    <g id="ytick_1">
     <g id="line2d_7">
      <path d="M 47.45 692.12 
L 543.73 692.12 
" clip-path="url(#pbdc7cc5eef)" style="fill: none; stroke-dasharray: 1.85,0.8; stroke-dashoffset: 0; stroke: #b0b0b0; stroke-width: 0.5"/>
     </g>
     <g id="line2d_8">
      <defs>
       <path id="m6aec7a11e6" d="M 0 0 
L -3.5 0 
" style="stroke: #000000; stroke-width: 0.8"/>
      </defs>
      <g>
       <use xlink:href="#m6aec7a11e6" x="47.45" y="692.12" style="stroke: #000000; stroke-width: 0.8"/>
      </g>
     </g>
     <g id="text_4">
      <!-- 0 -->
      <g transform="translate(34.0875 695.919219) scale(0.1 -0.1)">
       <use xlink:href="#DejaVuSans-30"/>
      </g>
     </g>
    </g>
    <g id="ytick_2">
     <g id="line2d_9">
      <path d="M 47.45 575.754657 
L 543.73 575.754657 
" clip-path="url(#pbdc7cc5eef)" style="fill: none; stroke-dasharray: 1.85,0.8; stroke-dashoffset: 0; stroke: #b0b0b0; stroke-width: 0.5"/>
     </g>
     <g id="line2d_10">
      <g>
       <use xlink:href="#m6aec7a11e6" x="47.45" y="575.754657" style="stroke: #000000; stroke-width: 0.8"/>
      </g>
     </g>
     <g id="text_5">
      <!-- 10 -->
      <g transform="translate(27.725 579.553876) scale(0.1 -0.1)">
       <defs>
        <path id="DejaVuSans-31" d="M 794 531 
L 1825 531 
L 1825 4091 
L 703 3866 
L 703 4441 
L 1819 4666 
L 2450 4666 
L 2450 531 
L 3481 531 
L 3481 0 
L 794 0 
L 794 531 
z
" transform="scale(0.015625)"/>
       </defs>
       <use xlink:href="#DejaVuSans-31"/>
       <use xlink:href="#DejaVuSans-30" transform="translate(63.623047 0)"/>
      </g>
     </g>
    </g>
    <g id="ytick_3">
     <g id="line2d_11">
      <path d="M 47.45 459.389314 
L 543.73 459.389314 
" clip-path="url(#pbdc7cc5eef)" style="fill: none; stroke-dasharray: 1.85,0.8; stroke-dashoffset: 0; stroke: #b0b0b0; stroke-width: 0.5"/>
     </g>
     <g id="line2d_12">
      <g>
       <use xlink:href="#m6aec7a11e6" x="47.45" y="459.389314" style="stroke: #000000; stroke-width: 0.8"/>
      </g>
     </g>
     <g id="text_6">
      <!-- 20 -->
      <g transform="translate(27.725 463.188533) scale(0.1 -0.1)">
       <use xlink:href="#DejaVuSans-32"/>
       <use xlink:href="#DejaVuSans-30" transform="translate(63.623047 0)"/>
      </g>
     </g>
    </g>
    <g id="ytick_4">
     <g id="line2d_13">
      <path d="M 47.45 343.023971 
L 543.73 343.023971 
" clip-path="url(#pbdc7cc5eef)" style="fill: none; stroke-dasharray: 1.85,0.8; stroke-dashoffset: 0; stroke: #b0b0b0; stroke-width: 0.5"/>
     </g>
     <g id="line2d_14">
      <g>
       <use xlink:href="#m6aec7a11e6" x="47.45" y="343.023971" style="stroke: #000000; stroke-width: 0.8"/>
      </g>
     </g>
     <g id="text_7">
      <!-- 30 -->
      <g transform="translate(27.725 346.82319) scale(0.1 -0.1)">
       <defs>
        <path id="DejaVuSans-33" d="M 2597 2516 
Q 3050 2419 3304 2112 
Q 3559 1806 3559 1356 
Q 3559 666 3084 287 
Q 2609 -91 1734 -91 
Q 1441 -91 1130 -33 
Q 819 25 488 141 
L 488 750 
Q 750 597 1062 519 
Q 1375 441 1716 441 
Q 2309 441 2620 675 
Q 2931 909 2931 1356 
Q 2931 1769 2642 2001 
Q 2353 2234 1838 2234 
L 1294 2234 
L 1294 2753 
L 1863 2753 
Q 2328 2753 2575 2939 
Q 2822 3125 2822 3475 
Q 2822 3834 2567 4026 
Q 2313 4219 1838 4219 
Q 1578 4219 1281 4162 
Q 984 4106 628 3988 
L 628 4550 
Q 988 4650 1302 4700 
Q 1616 4750 1894 4750 
Q 2613 4750 3031 4423 
Q 3450 4097 3450 3541 
Q 3450 3153 3228 2886 
Q 3006 2619 2597 2516 
z
" transform="scale(0.015625)"/>
       </defs>
       <use xlink:href="#DejaVuSans-33"/>
       <use xlink:href="#DejaVuSans-30" transform="translate(63.623047 0)"/>
      </g>
     </g>
    </g>
    <g id="ytick_5">
     <g id="line2d_15">
      <path d="M 47.45 226.658628 
L 543.73 226.658628 
" clip-path="url(#pbdc7cc5eef)" style="fill: none; stroke-dasharray: 1.85,0.8; stroke-dashoffset: 0; stroke: #b0b0b0; stroke-width: 0.5"/>
     </g>
     <g id="line2d_16">
      <g>
       <use xlink:href="#m6aec7a11e6" x="47.45" y="226.658628" style="stroke: #000000; stroke-width: 0.8"/>
      </g>
     </g>
     <g id="text_8">
      <!-- 40 -->
      <g transform="translate(27.725 230.457847) scale(0.1 -0.1)">
       <use xlink:href="#DejaVuSans-34"/>
       <use xlink:href="#DejaVuSans-30" transform="translate(63.623047 0)"/>
      </g>
     </g>
    </g>
    <g id="ytick_6">
     <g id="line2d_17">
      <path d="M 47.45 110.293285 
L 543.73 110.293285 
" clip-path="url(#pbdc7cc5eef)" style="fill: none; stroke-dasharray: 1.85,0.8; stroke-dashoffset: 0; stroke: #b0b0b0; stroke-width: 0.5"/>
     </g>
     <g id="line2d_18">
      <g>
       <use xlink:href="#m6aec7a11e6" x="47.45" y="110.293285" style="stroke: #000000; stroke-width: 0.8"/>
      </g>
     </g>
     <g id="text_9">
      <!-- 50 -->
      <g transform="translate(27.725 114.092504) scale(0.1 -0.1)">
       <use xlink:href="#DejaVuSans-35"/>
       <use xlink:href="#DejaVuSans-30" transform="translate(63.623047 0)"/>
      </g>
     </g>
    </g>
    <g id="text_10">
     <!-- PPL (perplexity) -->
     <g transform="translate(21.229375 407.179375) rotate(-90) scale(0.12 -0.12)">
      <defs>
       <path id="DejaVuSans-50" d="M 1259 4147 
L 1259 2394 
L 2053 2394 
Q 2494 2394 2734 2622 
Q 2975 2850 2975 3272 
Q 2975 3691 2734 3919 
Q 2494 4147 2053 4147 
L 1259 4147 
z
M 628 4666 
L 2053 4666 
Q 2838 4666 3239 4311 
Q 3641 3956 3641 3272 
Q 3641 2581 3239 2228 
Q 2838 1875 2053 1875 
L 1259 1875 
L 1259 0 
L 628 0 
L 628 4666 
z
" transform="scale(0.015625)"/>
       <path id="DejaVuSans-4c" d="M 628 4666 
L 1259 4666 
L 1259 531 
L 3531 531 
L 3531 0 
L 628 0 
L 628 4666 
z
" transform="scale(0.015625)"/>
       <path id="DejaVuSans-20" transform="scale(0.015625)"/>
       <path id="DejaVuSans-28" d="M 1984 4856 
Q 1566 4138 1362 3434 
Q 1159 2731 1159 2009 
Q 1159 1288 1364 580 
Q 1569 -128 1984 -844 
L 1484 -844 
Q 1016 -109 783 600 
Q 550 1309 550 2009 
Q 550 2706 781 3412 
Q 1013 4119 1484 4856 
L 1984 4856 
z
" transform="scale(0.015625)"/>
       <path id="DejaVuSans-70" d="M 1159 525 
L 1159 -1331 
L 581 -1331 
L 581 3500 
L 1159 3500 
L 1159 2969 
Q 1341 3281 1617 3432 
Q 1894 3584 2278 3584 
Q 2916 3584 3314 3078 
Q 3713 2572 3713 1747 
Q 3713 922 3314 415 
Q 2916 -91 2278 -91 
Q 1894 -91 1617 61 
Q 1341 213 1159 525 
z
M 3116 1747 
Q 3116 2381 2855 2742 
Q 2594 3103 2138 3103 
Q 1681 3103 1420 2742 
Q 1159 2381 1159 1747 
Q 1159 1113 1420 752 
Q 1681 391 2138 391 
Q 2594 391 2855 752 
Q 3116 1113 3116 1747 
z
" transform="scale(0.015625)"/>
       <path id="DejaVuSans-65" d="M 3597 1894 
L 3597 1613 
L 953 1613 
Q 991 1019 1311 708 
Q 1631 397 2203 397 
Q 2534 397 2845 478 
Q 3156 559 3463 722 
L 3463 178 
Q 3153 47 2828 -22 
Q 2503 -91 2169 -91 
Q 1331 -91 842 396 
Q 353 884 353 1716 
Q 353 2575 817 3079 
Q 1281 3584 2069 3584 
Q 2775 3584 3186 3129 
Q 3597 2675 3597 1894 
z
M 3022 2063 
Q 3016 2534 2758 2815 
Q 2500 3097 2075 3097 
Q 1594 3097 1305 2825 
Q 1016 2553 972 2059 
L 3022 2063 
z
" transform="scale(0.015625)"/>
       <path id="DejaVuSans-72" d="M 2631 2963 
Q 2534 3019 2420 3045 
Q 2306 3072 2169 3072 
Q 1681 3072 1420 2755 
Q 1159 2438 1159 1844 
L 1159 0 
L 581 0 
L 581 3500 
L 1159 3500 
L 1159 2956 
Q 1341 3275 1631 3429 
Q 1922 3584 2338 3584 
Q 2397 3584 2469 3576 
Q 2541 3569 2628 3553 
L 2631 2963 
z
" transform="scale(0.015625)"/>
       <path id="DejaVuSans-6c" d="M 603 4863 
L 1178 4863 
L 1178 0 
L 603 0 
L 603 4863 
z
" transform="scale(0.015625)"/>
       <path id="DejaVuSans-78" d="M 3513 3500 
L 2247 1797 
L 3578 0 
L 2900 0 
L 1881 1375 
L 863 0 
L 184 0 
L 1544 1831 
L 300 3500 
L 978 3500 
L 1906 2253 
L 2834 3500 
L 3513 3500 
z
" transform="scale(0.015625)"/>
       <path id="DejaVuSans-69" d="M 603 3500 
L 1178 3500 
L 1178 0 
L 603 0 
L 603 3500 
z
M 603 4863 
L 1178 4863 
L 1178 4134 
L 603 4134 
L 603 4863 
z
" transform="scale(0.015625)"/>
       <path id="DejaVuSans-74" d="M 1172 4494 
L 1172 3500 
L 2356 3500 
L 2356 3053 
L 1172 3053 
L 1172 1153 
Q 1172 725 1289 603 
Q 1406 481 1766 481 
L 2356 481 
L 2356 0 
L 1766 0 
Q 1100 0 847 248 
Q 594 497 594 1153 
L 594 3053 
L 172 3053 
L 172 3500 
L 594 3500 
L 594 4494 
L 1172 4494 
z
" transform="scale(0.015625)"/>
       <path id="DejaVuSans-79" d="M 2059 -325 
Q 1816 -950 1584 -1140 
Q 1353 -1331 966 -1331 
L 506 -1331 
L 506 -850 
L 844 -850 
Q 1081 -850 1212 -737 
Q 1344 -625 1503 -206 
L 1606 56 
L 191 3500 
L 800 3500 
L 1894 763 
L 2988 3500 
L 3597 3500 
L 2059 -325 
z
" transform="scale(0.015625)"/>
       <path id="DejaVuSans-29" d="M 513 4856 
L 1013 4856 
Q 1481 4119 1714 3412 
Q 1947 2706 1947 2009 
Q 1947 1309 1714 600 
Q 1481 -109 1013 -844 
L 513 -844 
Q 928 -128 1133 580 
Q 1338 1288 1338 2009 
Q 1338 2731 1133 3434 
Q 928 4138 513 4856 
z
" transform="scale(0.015625)"/>
      </defs>
      <use xlink:href="#DejaVuSans-50"/>
      <use xlink:href="#DejaVuSans-50" transform="translate(60.302734 0)"/>
      <use xlink:href="#DejaVuSans-4c" transform="translate(120.605469 0)"/>
      <use xlink:href="#DejaVuSans-20" transform="translate(176.318359 0)"/>
      <use xlink:href="#DejaVuSans-28" transform="translate(208.105469 0)"/>
      <use xlink:href="#DejaVuSans-70" transform="translate(247.119141 0)"/>
      <use xlink:href="#DejaVuSans-65" transform="translate(310.595703 0)"/>
      <use xlink:href="#DejaVuSans-72" transform="translate(372.119141 0)"/>
      <use xlink:href="#DejaVuSans-70" transform="translate(413.232422 0)"/>
      <use xlink:href="#DejaVuSans-6c" transform="translate(476.708984 0)"/>
      <use xlink:href="#DejaVuSans-65" transform="translate(504.492188 0)"/>
      <use xlink:href="#DejaVuSans-78" transform="translate(564.265625 0)"/>
      <use xlink:href="#DejaVuSans-69" transform="translate(623.445312 0)"/>
      <use xlink:href="#DejaVuSans-74" transform="translate(651.228516 0)"/>
      <use xlink:href="#DejaVuSans-79" transform="translate(690.4375 0)"/>
      <use xlink:href="#DejaVuSans-29" transform="translate(749.617188 0)"/>
     </g>
    </g>
   </g>
   <g id="patch_39">
    <path d="M 47.45 692.12 
L 47.45 27.6 
" style="fill: none; stroke: #000000; stroke-width: 0.8; stroke-linejoin: miter; stroke-linecap: square"/>
   </g>
   <g id="patch_40">
    <path d="M 543.73 692.12 
L 543.73 27.6 
" style="fill: none; stroke: #000000; stroke-width: 0.8; stroke-linejoin: miter; stroke-linecap: square"/>
   </g>
   <g id="patch_41">
    <path d="M 47.45 692.12 
L 543.73 692.12 
" style="fill: none; stroke: #000000; stroke-width: 0.8; stroke-linejoin: miter; stroke-linecap: square"/>
   </g>
   <g id="patch_42">
    <path d="M 47.45 27.6 
L 543.73 27.6 
" style="fill: none; stroke: #000000; stroke-width: 0.8; stroke-linejoin: miter; stroke-linecap: square"/>
   </g>
   <g id="text_11">
    <!-- Comparison of Different Methods for Structured Sparsity -->
    <g transform="translate(97.742656 21.6) scale(0.14 -0.14)">
     <defs>
      <path id="DejaVuSans-43" d="M 4122 4306 
L 4122 3641 
Q 3803 3938 3442 4084 
Q 3081 4231 2675 4231 
Q 1875 4231 1450 3742 
Q 1025 3253 1025 2328 
Q 1025 1406 1450 917 
Q 1875 428 2675 428 
Q 3081 428 3442 575 
Q 3803 722 4122 1019 
L 4122 359 
Q 3791 134 3420 21 
Q 3050 -91 2638 -91 
Q 1578 -91 968 557 
Q 359 1206 359 2328 
Q 359 3453 968 4101 
Q 1578 4750 2638 4750 
Q 3056 4750 3426 4639 
Q 3797 4528 4122 4306 
z
" transform="scale(0.015625)"/>
      <path id="DejaVuSans-6f" d="M 1959 3097 
Q 1497 3097 1228 2736 
Q 959 2375 959 1747 
Q 959 1119 1226 758 
Q 1494 397 1959 397 
Q 2419 397 2687 759 
Q 2956 1122 2956 1747 
Q 2956 2369 2687 2733 
Q 2419 3097 1959 3097 
z
M 1959 3584 
Q 2709 3584 3137 3096 
Q 3566 2609 3566 1747 
Q 3566 888 3137 398 
Q 2709 -91 1959 -91 
Q 1206 -91 779 398 
Q 353 888 353 1747 
Q 353 2609 779 3096 
Q 1206 3584 1959 3584 
z
" transform="scale(0.015625)"/>
      <path id="DejaVuSans-6d" d="M 3328 2828 
Q 3544 3216 3844 3400 
Q 4144 3584 4550 3584 
Q 5097 3584 5394 3201 
Q 5691 2819 5691 2113 
L 5691 0 
L 5113 0 
L 5113 2094 
Q 5113 2597 4934 2840 
Q 4756 3084 4391 3084 
Q 3944 3084 3684 2787 
Q 3425 2491 3425 1978 
L 3425 0 
L 2847 0 
L 2847 2094 
Q 2847 2600 2669 2842 
Q 2491 3084 2119 3084 
Q 1678 3084 1418 2786 
Q 1159 2488 1159 1978 
L 1159 0 
L 581 0 
L 581 3500 
L 1159 3500 
L 1159 2956 
Q 1356 3278 1631 3431 
Q 1906 3584 2284 3584 
Q 2666 3584 2933 3390 
Q 3200 3197 3328 2828 
z
" transform="scale(0.015625)"/>
      <path id="DejaVuSans-61" d="M 2194 1759 
Q 1497 1759 1228 1600 
Q 959 1441 959 1056 
Q 959 750 1161 570 
Q 1363 391 1709 391 
Q 2188 391 2477 730 
Q 2766 1069 2766 1631 
L 2766 1759 
L 2194 1759 
z
M 3341 1997 
L 3341 0 
L 2766 0 
L 2766 531 
Q 2569 213 2275 61 
Q 1981 -91 1556 -91 
Q 1019 -91 701 211 
Q 384 513 384 1019 
Q 384 1609 779 1909 
Q 1175 2209 1959 2209 
L 2766 2209 
L 2766 2266 
Q 2766 2663 2505 2880 
Q 2244 3097 1772 3097 
Q 1472 3097 1187 3025 
Q 903 2953 641 2809 
L 641 3341 
Q 956 3463 1253 3523 
Q 1550 3584 1831 3584 
Q 2591 3584 2966 3190 
Q 3341 2797 3341 1997 
z
" transform="scale(0.015625)"/>
      <path id="DejaVuSans-73" d="M 2834 3397 
L 2834 2853 
Q 2591 2978 2328 3040 
Q 2066 3103 1784 3103 
Q 1356 3103 1142 2972 
Q 928 2841 928 2578 
Q 928 2378 1081 2264 
Q 1234 2150 1697 2047 
L 1894 2003 
Q 2506 1872 2764 1633 
Q 3022 1394 3022 966 
Q 3022 478 2636 193 
Q 2250 -91 1575 -91 
Q 1294 -91 989 -36 
Q 684 19 347 128 
L 347 722 
Q 666 556 975 473 
Q 1284 391 1588 391 
Q 1994 391 2212 530 
Q 2431 669 2431 922 
Q 2431 1156 2273 1281 
Q 2116 1406 1581 1522 
L 1381 1569 
Q 847 1681 609 1914 
Q 372 2147 372 2553 
Q 372 3047 722 3315 
Q 1072 3584 1716 3584 
Q 2034 3584 2315 3537 
Q 2597 3491 2834 3397 
z
" transform="scale(0.015625)"/>
      <path id="DejaVuSans-6e" d="M 3513 2113 
L 3513 0 
L 2938 0 
L 2938 2094 
Q 2938 2591 2744 2837 
Q 2550 3084 2163 3084 
Q 1697 3084 1428 2787 
Q 1159 2491 1159 1978 
L 1159 0 
L 581 0 
L 581 3500 
L 1159 3500 
L 1159 2956 
Q 1366 3272 1645 3428 
Q 1925 3584 2291 3584 
Q 2894 3584 3203 3211 
Q 3513 2838 3513 2113 
z
" transform="scale(0.015625)"/>
      <path id="DejaVuSans-66" d="M 2375 4863 
L 2375 4384 
L 1825 4384 
Q 1516 4384 1395 4259 
Q 1275 4134 1275 3809 
L 1275 3500 
L 2222 3500 
L 2222 3053 
L 1275 3053 
L 1275 0 
L 697 0 
L 697 3053 
L 147 3053 
L 147 3500 
L 697 3500 
L 697 3744 
Q 697 4328 969 4595 
Q 1241 4863 1831 4863 
L 2375 4863 
z
" transform="scale(0.015625)"/>
      <path id="DejaVuSans-44" d="M 1259 4147 
L 1259 519 
L 2022 519 
Q 2988 519 3436 956 
Q 3884 1394 3884 2338 
Q 3884 3275 3436 3711 
Q 2988 4147 2022 4147 
L 1259 4147 
z
M 628 4666 
L 1925 4666 
Q 3281 4666 3915 4102 
Q 4550 3538 4550 2338 
Q 4550 1131 3912 565 
Q 3275 0 1925 0 
L 628 0 
L 628 4666 
z
" transform="scale(0.015625)"/>
      <path id="DejaVuSans-4d" d="M 628 4666 
L 1569 4666 
L 2759 1491 
L 3956 4666 
L 4897 4666 
L 4897 0 
L 4281 0 
L 4281 4097 
L 3078 897 
L 2444 897 
L 1241 4097 
L 1241 0 
L 628 0 
L 628 4666 
z
" transform="scale(0.015625)"/>
      <path id="DejaVuSans-68" d="M 3513 2113 
L 3513 0 
L 2938 0 
L 2938 2094 
Q 2938 2591 2744 2837 
Q 2550 3084 2163 3084 
Q 1697 3084 1428 2787 
Q 1159 2491 1159 1978 
L 1159 0 
L 581 0 
L 581 4863 
L 1159 4863 
L 1159 2956 
Q 1366 3272 1645 3428 
Q 1925 3584 2291 3584 
Q 2894 3584 3203 3211 
Q 3513 2838 3513 2113 
z
" transform="scale(0.015625)"/>
      <path id="DejaVuSans-64" d="M 2906 2969 
L 2906 4863 
L 3481 4863 
L 3481 0 
L 2906 0 
L 2906 525 
Q 2725 213 2448 61 
Q 2172 -91 1784 -91 
Q 1150 -91 751 415 
Q 353 922 353 1747 
Q 353 2572 751 3078 
Q 1150 3584 1784 3584 
Q 2172 3584 2448 3432 
Q 2725 3281 2906 2969 
z
M 947 1747 
Q 947 1113 1208 752 
Q 1469 391 1925 391 
Q 2381 391 2643 752 
Q 2906 1113 2906 1747 
Q 2906 2381 2643 2742 
Q 2381 3103 1925 3103 
Q 1469 3103 1208 2742 
Q 947 2381 947 1747 
z
" transform="scale(0.015625)"/>
      <path id="DejaVuSans-53" d="M 3425 4513 
L 3425 3897 
Q 3066 4069 2747 4153 
Q 2428 4238 2131 4238 
Q 1616 4238 1336 4038 
Q 1056 3838 1056 3469 
Q 1056 3159 1242 3001 
Q 1428 2844 1947 2747 
L 2328 2669 
Q 3034 2534 3370 2195 
Q 3706 1856 3706 1288 
Q 3706 609 3251 259 
Q 2797 -91 1919 -91 
Q 1588 -91 1214 -16 
Q 841 59 441 206 
L 441 856 
Q 825 641 1194 531 
Q 1563 422 1919 422 
Q 2459 422 2753 634 
Q 3047 847 3047 1241 
Q 3047 1584 2836 1778 
Q 2625 1972 2144 2069 
L 1759 2144 
Q 1053 2284 737 2584 
Q 422 2884 422 3419 
Q 422 4038 858 4394 
Q 1294 4750 2059 4750 
Q 2388 4750 2728 4690 
Q 3069 4631 3425 4513 
z
" transform="scale(0.015625)"/>
      <path id="DejaVuSans-75" d="M 544 1381 
L 544 3500 
L 1119 3500 
L 1119 1403 
Q 1119 906 1312 657 
Q 1506 409 1894 409 
Q 2359 409 2629 706 
Q 2900 1003 2900 1516 
L 2900 3500 
L 3475 3500 
L 3475 0 
L 2900 0 
L 2900 538 
Q 2691 219 2414 64 
Q 2138 -91 1772 -91 
Q 1169 -91 856 284 
Q 544 659 544 1381 
z
M 1991 3584 
L 1991 3584 
z
" transform="scale(0.015625)"/>
      <path id="DejaVuSans-63" d="M 3122 3366 
L 3122 2828 
Q 2878 2963 2633 3030 
Q 2388 3097 2138 3097 
Q 1578 3097 1268 2742 
Q 959 2388 959 1747 
Q 959 1106 1268 751 
Q 1578 397 2138 397 
Q 2388 397 2633 464 
Q 2878 531 3122 666 
L 3122 134 
Q 2881 22 2623 -34 
Q 2366 -91 2075 -91 
Q 1284 -91 818 406 
Q 353 903 353 1747 
Q 353 2603 823 3093 
Q 1294 3584 2113 3584 
Q 2378 3584 2631 3529 
Q 2884 3475 3122 3366 
z
" transform="scale(0.015625)"/>
     </defs>
     <use xlink:href="#DejaVuSans-43"/>
     <use xlink:href="#DejaVuSans-6f" transform="translate(69.824219 0)"/>
     <use xlink:href="#DejaVuSans-6d" transform="translate(131.005859 0)"/>
     <use xlink:href="#DejaVuSans-70" transform="translate(228.417969 0)"/>
     <use xlink:href="#DejaVuSans-61" transform="translate(291.894531 0)"/>
     <use xlink:href="#DejaVuSans-72" transform="translate(353.173828 0)"/>
     <use xlink:href="#DejaVuSans-69" transform="translate(394.287109 0)"/>
     <use xlink:href="#DejaVuSans-73" transform="translate(422.070312 0)"/>
     <use xlink:href="#DejaVuSans-6f" transform="translate(474.169922 0)"/>
     <use xlink:href="#DejaVuSans-6e" transform="translate(535.351562 0)"/>
     <use xlink:href="#DejaVuSans-20" transform="translate(598.730469 0)"/>
     <use xlink:href="#DejaVuSans-6f" transform="translate(630.517578 0)"/>
     <use xlink:href="#DejaVuSans-66" transform="translate(691.699219 0)"/>
     <use xlink:href="#DejaVuSans-20" transform="translate(726.904297 0)"/>
     <use xlink:href="#DejaVuSans-44" transform="translate(758.691406 0)"/>
     <use xlink:href="#DejaVuSans-69" transform="translate(835.693359 0)"/>
     <use xlink:href="#DejaVuSans-66" transform="translate(863.476562 0)"/>
     <use xlink:href="#DejaVuSans-66" transform="translate(898.681641 0)"/>
     <use xlink:href="#DejaVuSans-65" transform="translate(933.886719 0)"/>
     <use xlink:href="#DejaVuSans-72" transform="translate(995.410156 0)"/>
     <use xlink:href="#DejaVuSans-65" transform="translate(1034.273438 0)"/>
     <use xlink:href="#DejaVuSans-6e" transform="translate(1095.796875 0)"/>
     <use xlink:href="#DejaVuSans-74" transform="translate(1159.175781 0)"/>
     <use xlink:href="#DejaVuSans-20" transform="translate(1198.384766 0)"/>
     <use xlink:href="#DejaVuSans-4d" transform="translate(1230.171875 0)"/>
     <use xlink:href="#DejaVuSans-65" transform="translate(1316.451172 0)"/>
     <use xlink:href="#DejaVuSans-74" transform="translate(1377.974609 0)"/>
     <use xlink:href="#DejaVuSans-68" transform="translate(1417.183594 0)"/>
     <use xlink:href="#DejaVuSans-6f" transform="translate(1480.5625 0)"/>
     <use xlink:href="#DejaVuSans-64" transform="translate(1541.744141 0)"/>
     <use xlink:href="#DejaVuSans-73" transform="translate(1605.220703 0)"/>
     <use xlink:href="#DejaVuSans-20" transform="translate(1657.320312 0)"/>
     <use xlink:href="#DejaVuSans-66" transform="translate(1689.107422 0)"/>
     <use xlink:href="#DejaVuSans-6f" transform="translate(1724.3125 0)"/>
     <use xlink:href="#DejaVuSans-72" transform="translate(1785.494141 0)"/>
     <use xlink:href="#DejaVuSans-20" transform="translate(1826.607422 0)"/>
     <use xlink:href="#DejaVuSans-53" transform="translate(1858.394531 0)"/>
     <use xlink:href="#DejaVuSans-74" transform="translate(1921.871094 0)"/>
     <use xlink:href="#DejaVuSans-72" transform="translate(1961.080078 0)"/>
     <use xlink:href="#DejaVuSans-75" transform="translate(2002.193359 0)"/>
     <use xlink:href="#DejaVuSans-63" transform="translate(2065.572266 0)"/>
     <use xlink:href="#DejaVuSans-74" transform="translate(2120.552734 0)"/>
     <use xlink:href="#DejaVuSans-75" transform="translate(2159.761719 0)"/>
     <use xlink:href="#DejaVuSans-72" transform="translate(2223.140625 0)"/>
     <use xlink:href="#DejaVuSans-65" transform="translate(2262.003906 0)"/>
     <use xlink:href="#DejaVuSans-64" transform="translate(2323.527344 0)"/>
     <use xlink:href="#DejaVuSans-20" transform="translate(2387.003906 0)"/>
     <use xlink:href="#DejaVuSans-53" transform="translate(2418.791016 0)"/>
     <use xlink:href="#DejaVuSans-70" transform="translate(2482.267578 0)"/>
     <use xlink:href="#DejaVuSans-61" transform="translate(2545.744141 0)"/>
     <use xlink:href="#DejaVuSans-72" transform="translate(2607.023438 0)"/>
     <use xlink:href="#DejaVuSans-73" transform="translate(2648.136719 0)"/>
     <use xlink:href="#DejaVuSans-69" transform="translate(2700.236328 0)"/>
     <use xlink:href="#DejaVuSans-74" transform="translate(2728.019531 0)"/>
     <use xlink:href="#DejaVuSans-79" transform="translate(2767.228516 0)"/>
    </g>
   </g>
   <g id="legend_1">
    <g id="patch_43">
     <path d="M 575.544 212.571875 
L 703.815875 212.571875 
Q 705.815875 212.571875 705.815875 210.571875 
L 705.815875 34.6 
Q 705.815875 32.6 703.815875 32.6 
L 575.544 32.6 
Q 573.544 32.6 573.544 34.6 
L 573.544 210.571875 
Q 573.544 212.571875 575.544 212.571875 
z
" style="fill: #ffffff; opacity: 0.8; stroke: #cccccc; stroke-linejoin: miter"/>
    </g>
    <g id="patch_44">
     <path d="M 577.544 44.198437 
L 597.544 44.198437 
L 597.544 37.198437 
L 577.544 37.198437 
z
" style="fill: #808080"/>
    </g>
    <g id="text_12">
     <!-- magnitude -->
     <g transform="translate(605.544 44.198437) scale(0.1 -0.1)">
      <defs>
       <path id="DejaVuSans-67" d="M 2906 1791 
Q 2906 2416 2648 2759 
Q 2391 3103 1925 3103 
Q 1463 3103 1205 2759 
Q 947 2416 947 1791 
Q 947 1169 1205 825 
Q 1463 481 1925 481 
Q 2391 481 2648 825 
Q 2906 1169 2906 1791 
z
M 3481 434 
Q 3481 -459 3084 -895 
Q 2688 -1331 1869 -1331 
Q 1566 -1331 1297 -1286 
Q 1028 -1241 775 -1147 
L 775 -588 
Q 1028 -725 1275 -790 
Q 1522 -856 1778 -856 
Q 2344 -856 2625 -561 
Q 2906 -266 2906 331 
L 2906 616 
Q 2728 306 2450 153 
Q 2172 0 1784 0 
Q 1141 0 747 490 
Q 353 981 353 1791 
Q 353 2603 747 3093 
Q 1141 3584 1784 3584 
Q 2172 3584 2450 3431 
Q 2728 3278 2906 2969 
L 2906 3500 
L 3481 3500 
L 3481 434 
z
" transform="scale(0.015625)"/>
      </defs>
      <use xlink:href="#DejaVuSans-6d"/>
      <use xlink:href="#DejaVuSans-61" transform="translate(97.412109 0)"/>
      <use xlink:href="#DejaVuSans-67" transform="translate(158.691406 0)"/>
      <use xlink:href="#DejaVuSans-6e" transform="translate(222.167969 0)"/>
      <use xlink:href="#DejaVuSans-69" transform="translate(285.546875 0)"/>
      <use xlink:href="#DejaVuSans-74" transform="translate(313.330078 0)"/>
      <use xlink:href="#DejaVuSans-75" transform="translate(352.539062 0)"/>
      <use xlink:href="#DejaVuSans-64" transform="translate(415.917969 0)"/>
      <use xlink:href="#DejaVuSans-65" transform="translate(479.394531 0)"/>
     </g>
    </g>
    <g id="patch_45">
     <path d="M 577.544 58.876562 
L 597.544 58.876562 
L 597.544 51.876562 
L 577.544 51.876562 
z
" style="fill: #f08080"/>
    </g>
    <g id="text_13">
     <!-- wanda(ptb) -->
     <g transform="translate(605.544 58.876562) scale(0.1 -0.1)">
      <defs>
       <path id="DejaVuSans-77" d="M 269 3500 
L 844 3500 
L 1563 769 
L 2278 3500 
L 2956 3500 
L 3675 769 
L 4391 3500 
L 4966 3500 
L 4050 0 
L 3372 0 
L 2619 2869 
L 1863 0 
L 1184 0 
L 269 3500 
z
" transform="scale(0.015625)"/>
       <path id="DejaVuSans-62" d="M 3116 1747 
Q 3116 2381 2855 2742 
Q 2594 3103 2138 3103 
Q 1681 3103 1420 2742 
Q 1159 2381 1159 1747 
Q 1159 1113 1420 752 
Q 1681 391 2138 391 
Q 2594 391 2855 752 
Q 3116 1113 3116 1747 
z
M 1159 2969 
Q 1341 3281 1617 3432 
Q 1894 3584 2278 3584 
Q 2916 3584 3314 3078 
Q 3713 2572 3713 1747 
Q 3713 922 3314 415 
Q 2916 -91 2278 -91 
Q 1894 -91 1617 61 
Q 1341 213 1159 525 
L 1159 0 
L 581 0 
L 581 4863 
L 1159 4863 
L 1159 2969 
z
" transform="scale(0.015625)"/>
      </defs>
      <use xlink:href="#DejaVuSans-77"/>
      <use xlink:href="#DejaVuSans-61" transform="translate(81.787109 0)"/>
      <use xlink:href="#DejaVuSans-6e" transform="translate(143.066406 0)"/>
      <use xlink:href="#DejaVuSans-64" transform="translate(206.445312 0)"/>
      <use xlink:href="#DejaVuSans-61" transform="translate(269.921875 0)"/>
      <use xlink:href="#DejaVuSans-28" transform="translate(331.201172 0)"/>
      <use xlink:href="#DejaVuSans-70" transform="translate(370.214844 0)"/>
      <use xlink:href="#DejaVuSans-74" transform="translate(433.691406 0)"/>
      <use xlink:href="#DejaVuSans-62" transform="translate(472.900391 0)"/>
      <use xlink:href="#DejaVuSans-29" transform="translate(536.376953 0)"/>
     </g>
    </g>
    <g id="patch_46">
     <path d="M 577.544 73.554688 
L 597.544 73.554688 
L 597.544 66.554688 
L 577.544 66.554688 
z
" style="fill: #ff0000"/>
    </g>
    <g id="text_14">
     <!-- wanda -->
     <g transform="translate(605.544 73.554688) scale(0.1 -0.1)">
      <use xlink:href="#DejaVuSans-77"/>
      <use xlink:href="#DejaVuSans-61" transform="translate(81.787109 0)"/>
      <use xlink:href="#DejaVuSans-6e" transform="translate(143.066406 0)"/>
      <use xlink:href="#DejaVuSans-64" transform="translate(206.445312 0)"/>
      <use xlink:href="#DejaVuSans-61" transform="translate(269.921875 0)"/>
     </g>
    </g>
    <g id="patch_47">
     <path d="M 577.544 88.232812 
L 597.544 88.232812 
L 597.544 81.232812 
L 577.544 81.232812 
z
" style="fill: #add8e6"/>
    </g>
    <g id="text_15">
     <!-- sparsegpt(ptb) -->
     <g transform="translate(605.544 88.232812) scale(0.1 -0.1)">
      <use xlink:href="#DejaVuSans-73"/>
      <use xlink:href="#DejaVuSans-70" transform="translate(52.099609 0)"/>
      <use xlink:href="#DejaVuSans-61" transform="translate(115.576172 0)"/>
      <use xlink:href="#DejaVuSans-72" transform="translate(176.855469 0)"/>
      <use xlink:href="#DejaVuSans-73" transform="translate(217.96875 0)"/>
      <use xlink:href="#DejaVuSans-65" transform="translate(270.068359 0)"/>
      <use xlink:href="#DejaVuSans-67" transform="translate(331.591797 0)"/>
      <use xlink:href="#DejaVuSans-70" transform="translate(395.068359 0)"/>
      <use xlink:href="#DejaVuSans-74" transform="translate(458.544922 0)"/>
      <use xlink:href="#DejaVuSans-28" transform="translate(497.753906 0)"/>
      <use xlink:href="#DejaVuSans-70" transform="translate(536.767578 0)"/>
      <use xlink:href="#DejaVuSans-74" transform="translate(600.244141 0)"/>
      <use xlink:href="#DejaVuSans-62" transform="translate(639.453125 0)"/>
      <use xlink:href="#DejaVuSans-29" transform="translate(702.929688 0)"/>
     </g>
    </g>
    <g id="patch_48">
     <path d="M 577.544 102.910937 
L 597.544 102.910937 
L 597.544 95.910937 
L 577.544 95.910937 
z
" style="fill: #0000ff"/>
    </g>
    <g id="text_16">
     <!-- sparsegpt -->
     <g transform="translate(605.544 102.910937) scale(0.1 -0.1)">
      <use xlink:href="#DejaVuSans-73"/>
      <use xlink:href="#DejaVuSans-70" transform="translate(52.099609 0)"/>
      <use xlink:href="#DejaVuSans-61" transform="translate(115.576172 0)"/>
      <use xlink:href="#DejaVuSans-72" transform="translate(176.855469 0)"/>
      <use xlink:href="#DejaVuSans-73" transform="translate(217.96875 0)"/>
      <use xlink:href="#DejaVuSans-65" transform="translate(270.068359 0)"/>
      <use xlink:href="#DejaVuSans-67" transform="translate(331.591797 0)"/>
      <use xlink:href="#DejaVuSans-70" transform="translate(395.068359 0)"/>
      <use xlink:href="#DejaVuSans-74" transform="translate(458.544922 0)"/>
     </g>
    </g>
    <g id="patch_49">
     <path d="M 577.544 117.589062 
L 597.544 117.589062 
L 597.544 110.589062 
L 577.544 110.589062 
z
" style="fill: #008000"/>
    </g>
    <g id="text_17">
     <!-- RIA -->
     <g transform="translate(605.544 117.589062) scale(0.1 -0.1)">
      <defs>
       <path id="DejaVuSans-52" d="M 2841 2188 
Q 3044 2119 3236 1894 
Q 3428 1669 3622 1275 
L 4263 0 
L 3584 0 
L 2988 1197 
Q 2756 1666 2539 1819 
Q 2322 1972 1947 1972 
L 1259 1972 
L 1259 0 
L 628 0 
L 628 4666 
L 2053 4666 
Q 2853 4666 3247 4331 
Q 3641 3997 3641 3322 
Q 3641 2881 3436 2590 
Q 3231 2300 2841 2188 
z
M 1259 4147 
L 1259 2491 
L 2053 2491 
Q 2509 2491 2742 2702 
Q 2975 2913 2975 3322 
Q 2975 3731 2742 3939 
Q 2509 4147 2053 4147 
L 1259 4147 
z
" transform="scale(0.015625)"/>
       <path id="DejaVuSans-49" d="M 628 4666 
L 1259 4666 
L 1259 0 
L 628 0 
L 628 4666 
z
" transform="scale(0.015625)"/>
       <path id="DejaVuSans-41" d="M 2188 4044 
L 1331 1722 
L 3047 1722 
L 2188 4044 
z
M 1831 4666 
L 2547 4666 
L 4325 0 
L 3669 0 
L 3244 1197 
L 1141 1197 
L 716 0 
L 50 0 
L 1831 4666 
z
" transform="scale(0.015625)"/>
      </defs>
      <use xlink:href="#DejaVuSans-52"/>
      <use xlink:href="#DejaVuSans-49" transform="translate(69.482422 0)"/>
      <use xlink:href="#DejaVuSans-41" transform="translate(98.974609 0)"/>
     </g>
    </g>
    <g id="patch_50">
     <path d="M 577.544 132.267187 
L 597.544 132.267187 
L 597.544 125.267187 
L 577.544 125.267187 
z
" style="fill: #800080"/>
    </g>
    <g id="text_18">
     <!-- w.DSnoT -->
     <g transform="translate(605.544 132.267187) scale(0.1 -0.1)">
      <defs>
       <path id="DejaVuSans-2e" d="M 684 794 
L 1344 794 
L 1344 0 
L 684 0 
L 684 794 
z
" transform="scale(0.015625)"/>
       <path id="DejaVuSans-54" d="M -19 4666 
L 3928 4666 
L 3928 4134 
L 2272 4134 
L 2272 0 
L 1638 0 
L 1638 4134 
L -19 4134 
L -19 4666 
z
" transform="scale(0.015625)"/>
      </defs>
      <use xlink:href="#DejaVuSans-77"/>
      <use xlink:href="#DejaVuSans-2e" transform="translate(72.662109 0)"/>
      <use xlink:href="#DejaVuSans-44" transform="translate(104.449219 0)"/>
      <use xlink:href="#DejaVuSans-53" transform="translate(181.451172 0)"/>
      <use xlink:href="#DejaVuSans-6e" transform="translate(244.927734 0)"/>
      <use xlink:href="#DejaVuSans-6f" transform="translate(308.306641 0)"/>
      <use xlink:href="#DejaVuSans-54" transform="translate(369.488281 0)"/>
     </g>
    </g>
    <g id="patch_51">
     <path d="M 577.544 146.945312 
L 597.544 146.945312 
L 597.544 139.945312 
L 577.544 139.945312 
z
" style="fill: #ee82ee"/>
    </g>
    <g id="text_19">
     <!-- s.DSnoT -->
     <g transform="translate(605.544 146.945312) scale(0.1 -0.1)">
      <use xlink:href="#DejaVuSans-73"/>
      <use xlink:href="#DejaVuSans-2e" transform="translate(52.099609 0)"/>
      <use xlink:href="#DejaVuSans-44" transform="translate(83.886719 0)"/>
      <use xlink:href="#DejaVuSans-53" transform="translate(160.888672 0)"/>
      <use xlink:href="#DejaVuSans-6e" transform="translate(224.365234 0)"/>
      <use xlink:href="#DejaVuSans-6f" transform="translate(287.744141 0)"/>
      <use xlink:href="#DejaVuSans-54" transform="translate(348.925781 0)"/>
     </g>
    </g>
    <g id="patch_52">
     <path d="M 577.544 161.623437 
L 597.544 161.623437 
L 597.544 154.623437 
L 577.544 154.623437 
z
" style="fill: #ffa500"/>
    </g>
    <g id="text_20">
     <!-- admm -->
     <g transform="translate(605.544 161.623437) scale(0.1 -0.1)">
      <use xlink:href="#DejaVuSans-61"/>
      <use xlink:href="#DejaVuSans-64" transform="translate(61.279297 0)"/>
      <use xlink:href="#DejaVuSans-6d" transform="translate(124.755859 0)"/>
      <use xlink:href="#DejaVuSans-6d" transform="translate(222.167969 0)"/>
     </g>
    </g>
    <g id="patch_53">
     <path d="M 577.544 176.301562 
L 597.544 176.301562 
L 597.544 169.301562 
L 577.544 169.301562 
z
" style="fill: #a52a2a"/>
    </g>
    <g id="text_21">
     <!-- wanda_owl(ptb) -->
     <g transform="translate(605.544 176.301562) scale(0.1 -0.1)">
      <defs>
       <path id="DejaVuSans-5f" d="M 3263 -1063 
L 3263 -1509 
L -63 -1509 
L -63 -1063 
L 3263 -1063 
z
" transform="scale(0.015625)"/>
      </defs>
      <use xlink:href="#DejaVuSans-77"/>
      <use xlink:href="#DejaVuSans-61" transform="translate(81.787109 0)"/>
      <use xlink:href="#DejaVuSans-6e" transform="translate(143.066406 0)"/>
      <use xlink:href="#DejaVuSans-64" transform="translate(206.445312 0)"/>
      <use xlink:href="#DejaVuSans-61" transform="translate(269.921875 0)"/>
      <use xlink:href="#DejaVuSans-5f" transform="translate(331.201172 0)"/>
      <use xlink:href="#DejaVuSans-6f" transform="translate(381.201172 0)"/>
      <use xlink:href="#DejaVuSans-77" transform="translate(442.382812 0)"/>
      <use xlink:href="#DejaVuSans-6c" transform="translate(524.169922 0)"/>
      <use xlink:href="#DejaVuSans-28" transform="translate(551.953125 0)"/>
      <use xlink:href="#DejaVuSans-70" transform="translate(590.966797 0)"/>
      <use xlink:href="#DejaVuSans-74" transform="translate(654.443359 0)"/>
      <use xlink:href="#DejaVuSans-62" transform="translate(693.652344 0)"/>
      <use xlink:href="#DejaVuSans-29" transform="translate(757.128906 0)"/>
     </g>
    </g>
    <g id="patch_54">
     <path d="M 577.544 191.257812 
L 597.544 191.257812 
L 597.544 184.257812 
L 577.544 184.257812 
z
" style="fill: #00bfff"/>
    </g>
    <g id="text_22">
     <!-- sparsegpt_owl(ptb) -->
     <g transform="translate(605.544 191.257812) scale(0.1 -0.1)">
      <use xlink:href="#DejaVuSans-73"/>
      <use xlink:href="#DejaVuSans-70" transform="translate(52.099609 0)"/>
      <use xlink:href="#DejaVuSans-61" transform="translate(115.576172 0)"/>
      <use xlink:href="#DejaVuSans-72" transform="translate(176.855469 0)"/>
      <use xlink:href="#DejaVuSans-73" transform="translate(217.96875 0)"/>
      <use xlink:href="#DejaVuSans-65" transform="translate(270.068359 0)"/>
      <use xlink:href="#DejaVuSans-67" transform="translate(331.591797 0)"/>
      <use xlink:href="#DejaVuSans-70" transform="translate(395.068359 0)"/>
      <use xlink:href="#DejaVuSans-74" transform="translate(458.544922 0)"/>
      <use xlink:href="#DejaVuSans-5f" transform="translate(497.753906 0)"/>
      <use xlink:href="#DejaVuSans-6f" transform="translate(547.753906 0)"/>
      <use xlink:href="#DejaVuSans-77" transform="translate(608.935547 0)"/>
      <use xlink:href="#DejaVuSans-6c" transform="translate(690.722656 0)"/>
      <use xlink:href="#DejaVuSans-28" transform="translate(718.505859 0)"/>
      <use xlink:href="#DejaVuSans-70" transform="translate(757.519531 0)"/>
      <use xlink:href="#DejaVuSans-74" transform="translate(820.996094 0)"/>
      <use xlink:href="#DejaVuSans-62" transform="translate(860.205078 0)"/>
      <use xlink:href="#DejaVuSans-29" transform="translate(923.681641 0)"/>
     </g>
    </g>
    <g id="patch_55">
     <path d="M 577.544 206.214062 
L 597.544 206.214062 
L 597.544 199.214062 
L 577.544 199.214062 
z
" style="fill: #1e90ff"/>
    </g>
    <g id="text_23">
     <!-- wanda_owl -->
     <g transform="translate(605.544 206.214062) scale(0.1 -0.1)">
      <use xlink:href="#DejaVuSans-77"/>
      <use xlink:href="#DejaVuSans-61" transform="translate(81.787109 0)"/>
      <use xlink:href="#DejaVuSans-6e" transform="translate(143.066406 0)"/>
      <use xlink:href="#DejaVuSans-64" transform="translate(206.445312 0)"/>
      <use xlink:href="#DejaVuSans-61" transform="translate(269.921875 0)"/>
      <use xlink:href="#DejaVuSans-5f" transform="translate(331.201172 0)"/>
      <use xlink:href="#DejaVuSans-6f" transform="translate(381.201172 0)"/>
      <use xlink:href="#DejaVuSans-77" transform="translate(442.382812 0)"/>
      <use xlink:href="#DejaVuSans-6c" transform="translate(524.169922 0)"/>
     </g>
    </g>
   </g>
  </g>
 </g>
 <defs>
  <clipPath id="pbdc7cc5eef">
   <rect x="47.45" y="27.6" width="496.28" height="664.52"/>
  </clipPath>
 </defs>
</svg>
